<svg font-size="24px" width="1em" height="1em" viewBox="0 0 24 24" fill="none" xmlns="http://www.w3.org/2000/svg"><path fill-rule="evenodd" clip-rule="evenodd" d="M11.4697 1.46817C11.6104 1.32751 11.8012 1.24851 12.0001 1.24854C13.8838 1.24882 15.7343 1.74399 17.3664 2.68445C18.9903 3.62025 20.3413 4.96424 21.2855 6.58298C21.2938 6.59556 21.3019 6.60846 21.3096 6.62169C21.3183 6.63665 21.3264 6.6518 21.334 6.66709C22.2565 8.28203 22.7445 10.1091 22.7497 11.9697C22.755 13.8533 22.2653 15.7053 21.3296 17.3402C20.394 18.975 19.0452 20.3353 17.4184 21.2849C15.7917 22.2345 13.9439 22.74 12.0603 22.7509C10.1767 22.7617 8.32327 22.2775 6.68567 21.3466C5.04807 20.4158 3.68377 19.0711 2.72938 17.4471C2.62834 17.2752 2.59994 17.0701 2.65044 16.8772C2.70094 16.6842 2.82619 16.5194 2.99851 16.419L11.25 11.6129V1.99854C11.25 1.7996 11.329 1.60882 11.4697 1.46817ZM12.75 10.7393L19.6111 6.74301C18.8322 5.61501 17.8104 4.67156 16.6174 3.98412C15.4305 3.30014 14.1092 2.88988 12.75 2.77911V10.7393ZM20.3606 8.04237L4.43061 17.3208C5.21441 18.4356 6.23678 19.3661 7.42691 20.0426C8.83603 20.8435 10.4309 21.2602 12.0517 21.2509C13.6725 21.2416 15.2624 20.8066 16.6623 19.9895C18.0621 19.1724 19.2227 18.0018 20.0278 16.5951C20.8329 15.1883 21.2543 13.5947 21.2497 11.9739C21.2459 10.6108 20.941 9.26874 20.3606 8.04237ZM9.09927 1.95917C9.29805 2.09974 9.41623 2.32806 9.41623 2.57152V10.0725C9.41623 10.3405 9.27319 10.5882 9.04103 10.7221L2.54021 14.4726C2.32928 14.5943 2.07241 14.606 1.85129 14.504C1.63017 14.402 1.47232 14.199 1.42797 13.9596C0.961463 11.4416 1.40906 8.83976 2.69019 6.62242C3.97132 4.40508 6.00184 2.71784 8.41628 1.8644C8.64583 1.78326 8.90048 1.81859 9.09927 1.95917ZM7.91623 3.69956C6.27961 4.50452 4.90949 5.77965 3.98899 7.37284C3.06855 8.9659 2.64813 10.7896 2.76807 12.6094L7.91623 9.6393V3.69956Z" fill="currentColor" stroke-width="1.5"></path></svg>