<svg xmlns="http://www.w3.org/2000/svg" data-automation-id="svg-icon" width="24" height="24" fill="none" viewBox="0 0 24 24" class="svg-icon-wrapper styles_svg-container-override__5cUGx" da-id="svg-icon"><path fill="#c20000" fill-rule="evenodd" d="M11.381 2.73c.512-.728 1.528-.984 2.32-.445.962.655 2.645 1.935 4.094 3.733S20.5 10.185 20.5 13c0 4.866-3.759 9-8.5 9s-8.5-4.134-8.5-9c0-2.025.879-4.635 2.602-6.723.664-.804 1.818-.748 2.483-.087a.253.253 0 0 0 .383-.031l2.412-3.428zm.618 17.769c1.546 0 2.8-1.437 2.8-3.21 0-1.927-1.511-3.337-2.313-3.951a.79.79 0 0 0-.974 0c-.802.613-2.313 2.024-2.313 3.951 0 1.773 1.254 3.21 2.8 3.21"></path></svg>