<svg xmlns="http://www.w3.org/2000/svg" xmlns:xlink="http://www.w3.org/1999/xlink" viewBox="0 0 430 430" width="430" height="430" preserveAspectRatio="xMidYMid meet" style="width: 100%; height: 100%; transform: translate3d(0px, 0px, 0px); content-visibility: visible;"><defs><clipPath id="__lottie_element_33"><rect width="430" height="430" x="0" y="0"></rect></clipPath><clipPath id="__lottie_element_35"><path d="M0,0 L430,0 L430,430 L0,430z"></path></clipPath></defs><g clip-path="url(#__lottie_element_33)"><g clip-path="url(#__lottie_element_35)" transform="matrix(1,0,0,1,0,0)" opacity="1" style="display: block;"><g transform="matrix(1,0,0,1,215,215)" opacity="0.2" style="display: block;"><g opacity="1" transform="matrix(1,0,0,1,0,0)"><path stroke-linecap="round" stroke-linejoin="round" fill-opacity="0" class="quinary" stroke="rgb(29,185,190)" stroke-opacity="1" stroke-width="10" d=" M103.1520004272461,-277.3689880371094 C105.58899688720703,-279.4859924316406 108.2040023803711,-281.3739929199219 111,-283"></path></g></g><g transform="matrix(1,0,0,1,215,215)" opacity="0.2" style="display: block;"><g opacity="1" transform="matrix(1,0,0,1,0,0)"><path stroke-linecap="round" stroke-linejoin="round" fill-opacity="0" class="quinary" stroke="rgb(29,185,190)" stroke-opacity="1" stroke-width="10" d=" M-90.51300048828125,-171.75100708007812 C-115.81400299072266,-164.5850067138672 -132.5449981689453,-167.46200561523438 -135,-185 C-136.62100219726562,-196.58299255371094 -129.6840057373047,-203.99600219726562 -121.49700164794922,-206.48300170898438"></path></g></g><g transform="matrix(1,0,0,1,215,215)" opacity="0.2" style="display: block;"><g opacity="1" transform="matrix(1,0,0,1,0,0)"><path stroke-linecap="round" stroke-linejoin="round" fill-opacity="0" class="quinary" stroke="rgb(29,185,190)" stroke-opacity="1" stroke-width="10" d=" M196.9199981689453,-155.41000366210938 C180.322998046875,-141.74600219726562 145.447998046875,-152.218994140625 149.3699951171875,-175.99200439453125 C150.4600067138672,-182.5989990234375 159.5399932861328,-186.92100524902344 167.89500427246094,-186.85800170898438"></path></g></g><g transform="matrix(1,0,0,1,215,215)" opacity="0.2" style="display: block;"><g opacity="1" transform="matrix(1,0,0,1,0,0)"><path stroke-linecap="round" stroke-linejoin="round" fill-opacity="0" class="quinary" stroke="rgb(29,185,190)" stroke-opacity="1" stroke-width="10" d="M0 0"></path></g></g><g transform="matrix(1,0,0,1,215,215)" opacity="0.2" style="display: block;"><g opacity="1" transform="matrix(1,0,0,1,0,0)"><path stroke-linecap="round" stroke-linejoin="round" fill-opacity="0" class="quinary" stroke="rgb(29,185,190)" stroke-opacity="1" stroke-width="10" d=" M64,-143 C64,-144.70599365234375 63.94599914550781,-146.38299560546875 63.8380012512207,-148.02999877929688"></path></g></g><g transform="matrix(1,0,0,1,215,215)" opacity="0.2" style="display: none;"><g opacity="1" transform="matrix(1,0,0,1,0,0)"><path stroke-linecap="round" stroke-linejoin="round" fill-opacity="0" class="quinary" stroke="rgb(29,185,190)" stroke-opacity="1" stroke-width="10" d=" M116.83999633789062,-192.27699279785156 C129.61500549316406,-201.86900329589844 147.875,-205.1510009765625 170.25599670410156,-205.802001953125 C194.24200439453125,-206.5 208.39100646972656,-191.88699340820312 205.01400756835938,-170.1269989013672 C201.4080047607422,-146.88999938964844 172.43499755859375,-144.656005859375 157.66200256347656,-155.91299438476562"></path></g></g><g transform="matrix(1,0,0,1,215,222.97000122070312)" opacity="1" style="display: block;"><g opacity="1" transform="matrix(1,0,0,1,0,0)"><path class="senary" fill="rgb(241,241,241)" fill-opacity="1" d=" M133.1300048828125,148.6199951171875 C133.1300048828125,148.6199951171875 133.1300048828125,-31.670000076293945 133.1300048828125,-31.670000076293945 C133.1300048828125,-31.670000076293945 23,-131.69000244140625 23,-131.69000244140625 C23,-131.69000244140625 0,-152.6199951171875 0,-152.6199951171875 C0,-152.6199951171875 -133.1300048828125,-31.829999923706055 -133.1300048828125,-31.829999923706055 C-133.1300048828125,-31.829999923706055 -133.1300048828125,148.6199951171875 -133.1300048828125,148.6199951171875 C-133.1300048828125,149.68099975585938 -132.70799255371094,150.697998046875 -131.95799255371094,151.447998046875 C-131.20799255371094,152.197998046875 -130.1909942626953,152.6199951171875 -129.1300048828125,152.6199951171875 C-129.1300048828125,152.6199951171875 129.1300048828125,152.6199951171875 129.1300048828125,152.6199951171875 C130.1909942626953,152.6199951171875 131.20799255371094,152.197998046875 131.95799255371094,151.447998046875 C132.70799255371094,150.697998046875 133.1300048828125,149.68099975585938 133.1300048828125,148.6199951171875z"></path></g><g opacity="1" transform="matrix(1,0,0,1,0,0)" style="mix-blend-mode: multiply;"><path class="senary" fill="rgb(241,241,241)" fill-opacity="0.5" d=" M-111.33999633789062,-9.864999771118164 C-111.33999633789062,-9.864999771118164 22.940000534057617,-131.72500610351562 22.940000534057617,-131.72500610351562 C22.940000534057617,-131.72500610351562 -0.05999999865889549,-152.65499877929688 -0.05999999865889549,-152.65499877929688 C-0.05999999865889549,-152.65499877929688 -133.19000244140625,-31.864999771118164 -133.19000244140625,-31.864999771118164 C-133.19000244140625,-31.864999771118164 -133.19000244140625,148.5850067138672 -133.19000244140625,148.5850067138672 C-133.19000244140625,149.64599609375 -132.76800537109375,150.66400146484375 -132.01800537109375,151.41400146484375 C-131.26800537109375,152.16400146484375 -130.25100708007812,152.5850067138672 -129.19000244140625,152.5850067138672 C-129.19000244140625,152.5850067138672 -111.33999633789062,152.5850067138672 -111.33999633789062,152.5850067138672 C-111.33999633789062,152.5850067138672 -111.33999633789062,-9.864999771118164 -111.33999633789062,-9.864999771118164z"></path></g></g><g transform="matrix(1,0,0,1,294.2300109863281,108.0110092163086)" opacity="1" style="display: block;"><g opacity="1" transform="matrix(1,0,0,1,0,0)"><path class="quaternary" fill="rgb(44,44,44)" fill-opacity="1" d=" M-23.56999969482422,-35.16999816894531 C-23.56999969482422,-35.16999816894531 -23.56999969482422,-4.53000020980835 -23.56999969482422,-4.53000020980835 C-23.56999969482422,-4.53000020980835 23.56999969482422,39.16999816894531 23.56999969482422,39.16999816894531 C23.56999969482422,39.16999816894531 23.56999969482422,-35.16999816894531 23.56999969482422,-35.16999816894531 C23.56999969482422,-36.23099899291992 23.148000717163086,-37.24800109863281 22.398000717163086,-37.99800109863281 C21.648000717163086,-38.74800109863281 20.631000518798828,-39.16999816894531 19.56999969482422,-39.16999816894531 C19.56999969482422,-39.16999816894531 -19.56999969482422,-39.16999816894531 -19.56999969482422,-39.16999816894531 C-20.631000518798828,-39.16999816894531 -21.648000717163086,-38.74800109863281 -22.398000717163086,-37.99800109863281 C-23.148000717163086,-37.24800109863281 -23.56999969482422,-36.23099899291992 -23.56999969482422,-35.16999816894531z"></path><path stroke-linecap="butt" stroke-linejoin="miter" fill-opacity="0" stroke-miterlimit="4" class="quaternary" stroke="rgb(44,44,44)" stroke-opacity="1" stroke-width="1" d=" M-23.56999969482422,-35.16999816894531 C-23.56999969482422,-35.16999816894531 -23.56999969482422,-4.53000020980835 -23.56999969482422,-4.53000020980835 C-23.56999969482422,-4.53000020980835 23.56999969482422,39.16999816894531 23.56999969482422,39.16999816894531 C23.56999969482422,39.16999816894531 23.56999969482422,-35.16999816894531 23.56999969482422,-35.16999816894531 C23.56999969482422,-36.23099899291992 23.148000717163086,-37.24800109863281 22.398000717163086,-37.99800109863281 C21.648000717163086,-38.74800109863281 20.631000518798828,-39.16999816894531 19.56999969482422,-39.16999816894531 C19.56999969482422,-39.16999816894531 -19.56999969482422,-39.16999816894531 -19.56999969482422,-39.16999816894531 C-20.631000518798828,-39.16999816894531 -21.648000717163086,-38.74800109863281 -22.398000717163086,-37.99800109863281 C-23.148000717163086,-37.24800109863281 -23.56999969482422,-36.23099899291992 -23.56999969482422,-35.16999816894531z"></path></g><g opacity="1" transform="matrix(1,0,0,1,0,0)" style="mix-blend-mode: multiply;"><path class="quaternary" fill="rgb(44,44,44)" fill-opacity="1" d=" M-19.625,-39.13999938964844 C-19.625,-39.13999938964844 -8.375,-39.13999938964844 -8.375,-39.13999938964844 C-8.375,-39.13999938964844 -8.375,9.640000343322754 -8.375,9.640000343322754 C-8.375,9.640000343322754 -23.625,-4.5 -23.625,-4.5 C-23.625,-4.5 -23.625,-35.13999938964844 -23.625,-35.13999938964844 C-23.625,-36.20100021362305 -23.202999114990234,-37.21799850463867 -22.452999114990234,-37.96799850463867 C-21.702999114990234,-38.71799850463867 -20.68600082397461,-39.13999938964844 -19.625,-39.13999938964844z"></path><path stroke-linecap="butt" stroke-linejoin="miter" fill-opacity="0" stroke-miterlimit="4" class="quaternary" stroke="rgb(44,44,44)" stroke-opacity="1" stroke-width="1" d=" M-19.625,-39.13999938964844 C-19.625,-39.13999938964844 -8.375,-39.13999938964844 -8.375,-39.13999938964844 C-8.375,-39.13999938964844 -8.375,9.640000343322754 -8.375,9.640000343322754 C-8.375,9.640000343322754 -23.625,-4.5 -23.625,-4.5 C-23.625,-4.5 -23.625,-35.13999938964844 -23.625,-35.13999938964844 C-23.625,-36.20100021362305 -23.202999114990234,-37.21799850463867 -22.452999114990234,-37.96799850463867 C-21.702999114990234,-38.71799850463867 -20.68600082397461,-39.13999938964844 -19.625,-39.13999938964844z"></path></g></g><g transform="matrix(1,0,0,1,215,137.3350067138672)" opacity="1" style="display: block;"><g opacity="1" transform="matrix(1,0,0,1,0,0)"><path class="secondary" fill="rgb(223,59,48)" fill-opacity="1" d=" M0,-53.60499954223633 C0,-53.60499954223633 149.30999755859375,81.91500091552734 149.30999755859375,81.91500091552734 C149.697998046875,82.2760009765625 150.15499877929688,82.55599975585938 150.65199279785156,82.73899841308594 C151.1490020751953,82.9219970703125 151.67799377441406,83.00299835205078 152.20700073242188,82.9800033569336 C152.73599243164062,82.95700073242188 153.2570037841797,82.8290023803711 153.73599243164062,82.60299682617188 C154.21499633789062,82.37699890136719 154.64500427246094,82.05799865722656 155,81.66500091552734 C155,81.66500091552734 166.38999938964844,69.05500030517578 166.38999938964844,69.05500030517578 C167.10299682617188,68.2699966430664 167.4759979248047,67.23500061035156 167.4250030517578,66.17500305175781 C167.37399291992188,65.11499786376953 166.90499877929688,64.11799621582031 166.1199951171875,63.404998779296875 C166.1199951171875,63.404998779296875 8.420000076293945,-79.74500274658203 8.420000076293945,-79.74500274658203 C6.11899995803833,-81.83000183105469 3.125,-82.98400115966797 0.019999999552965164,-82.98400115966797 C-3.0850000381469727,-82.98400115966797 -6.078999996185303,-81.83000183105469 -8.380000114440918,-79.74500274658203 C-8.380000114440918,-79.74500274658203 -166.1199951171875,63.375 -166.1199951171875,63.375 C-166.90499877929688,64.08799743652344 -167.37399291992188,65.08499908447266 -167.4250030517578,66.1449966430664 C-167.4759979248047,67.20500183105469 -167.10299682617188,68.23999786376953 -166.38999938964844,69.0250015258789 C-166.38999938964844,69.0250015258789 -155,81.66500091552734 -155,81.66500091552734 C-154.64300537109375,82.05500030517578 -154.21299743652344,82.37000274658203 -153.73300170898438,82.59200286865234 C-153.2530059814453,82.81400299072266 -152.73399353027344,82.94000244140625 -152.20599365234375,82.95999908447266 C-151.67799377441406,82.9800033569336 -151.14999389648438,82.89600372314453 -150.65499877929688,82.71199798583984 C-150.16000366210938,82.52799987792969 -149.70599365234375,82.24600219726562 -149.32000732421875,81.88500213623047 C-149.32000732421875,81.88500213623047 0,-53.60499954223633 0,-53.60499954223633z"></path></g></g><g transform="matrix(1,0,0,1,215,306.7950134277344)" opacity="1" style="display: block;"><g opacity="1" transform="matrix(1,0,0,1,0,0)"><path class="tertiary" fill="rgb(223,59,48)" fill-opacity="1" d=" M-45.900001525878906,-64.79499816894531 C-45.900001525878906,-64.79499816894531 -45.900001525878906,68.79499816894531 -45.900001525878906,68.79499816894531 C-45.900001525878906,68.79499816894531 45.900001525878906,68.79499816894531 45.900001525878906,68.79499816894531 C45.900001525878906,68.79499816894531 45.900001525878906,-64.79499816894531 45.900001525878906,-64.79499816894531 C45.900001525878906,-65.85600280761719 45.47800064086914,-66.87300109863281 44.72800064086914,-67.62300109863281 C43.97800064086914,-68.37300109863281 42.96099853515625,-68.79499816894531 41.900001525878906,-68.79499816894531 C41.900001525878906,-68.79499816894531 -41.900001525878906,-68.79499816894531 -41.900001525878906,-68.79499816894531 C-42.96099853515625,-68.79499816894531 -43.97800064086914,-68.37300109863281 -44.72800064086914,-67.62300109863281 C-45.47800064086914,-66.87300109863281 -45.900001525878906,-65.85600280761719 -45.900001525878906,-64.79499816894531z"></path></g><g opacity="0.5" transform="matrix(1,0,0,1,0,0)" style="mix-blend-mode: multiply;"><path class="tertiary" fill="rgb(223,59,48)" fill-opacity="1" d=" M-41.84000015258789,-68.79499816894531 C-41.84000015258789,-68.79499816894531 -25.65999984741211,-68.79499816894531 -25.65999984741211,-68.79499816894531 C-25.65999984741211,-68.79499816894531 -25.65999984741211,68.79499816894531 -25.65999984741211,68.79499816894531 C-25.65999984741211,68.79499816894531 -45.84000015258789,68.79499816894531 -45.84000015258789,68.79499816894531 C-45.84000015258789,68.79499816894531 -45.84000015258789,-64.79499816894531 -45.84000015258789,-64.79499816894531 C-45.84000015258789,-65.85600280761719 -45.417999267578125,-66.87300109863281 -44.667999267578125,-67.62300109863281 C-43.917999267578125,-68.37300109863281 -42.9010009765625,-68.79499816894531 -41.84000015258789,-68.79499816894531z"></path></g><g opacity="1" transform="matrix(1,0,0,1,29.31399917602539,1.3960000276565552)"><path class="quaternary" fill="rgb(44,44,44)" fill-opacity="1" d=" M0,-6 C3.313999891281128,-6 6,-3.313999891281128 6,0 C6,3.313999891281128 3.313999891281128,6 0,6 C-3.313999891281128,6 -6,3.313999891281128 -6,0 C-6,-3.313999891281128 -3.313999891281128,-6 0,-6z"></path></g></g></g></g></svg>