<svg xmlns="http://www.w3.org/2000/svg" data-automation-id="svg-icon" width="24" height="24" fill="#008549" viewBox="0 0 24 24" class="svg-icon-wrapper styles_svg-container-override__5cUGx" da-id="svg-icon"><path fill="#008549" d="M7.5 8.5v3h4v-3z"></path><path fill="#008549" fill-rule="evenodd" d="M2 5.75A2.75 2.75 0 0 1 4.75 3h9.5A2.75 2.75 0 0 1 17 5.75v5.5h2.25A2.75 2.75 0 0 1 22 14v3.75A3.25 3.25 0 0 1 18.75 21H5.25A3.25 3.25 0 0 1 2 17.75zM18.75 19.5a1.75 1.75 0 0 0 1.75-1.75V14c0-.69-.56-1.25-1.25-1.25H17v5c0 .966.784 1.75 1.75 1.75m-12-4.5a.75.75 0 0 0 0 1.5h5.5a.75.75 0 0 0 0-1.5zM6 7.75A.75.75 0 0 1 6.75 7h5.5a.75.75 0 0 1 .75.75v4.5a.75.75 0 0 1-.75.75h-5.5a.75.75 0 0 1-.75-.75z" clip-rule="evenodd"></path></svg>