<svg font-size="24px" width="1em" height="1em" viewBox="0 0 24 24" fill="none" xmlns="http://www.w3.org/2000/svg"><path d="M12.0001 5.63636C13.0042 5.63636 13.8182 4.82233 13.8182 3.81818C13.8182 2.81403 13.0042 2 12.0001 2C10.9959 2 10.1819 2.81403 10.1819 3.81818C10.1819 4.82233 10.9959 5.63636 12.0001 5.63636Z" stroke="currentColor" stroke-width="1.5" stroke-miterlimit="10" stroke-linecap="square"></path><path d="M20.1819 10.1818C21.1861 10.1818 22.0001 9.36774 22.0001 8.36359C22.0001 7.35944 21.1861 6.54541 20.1819 6.54541C19.1778 6.54541 18.3638 7.35944 18.3638 8.36359C18.3638 9.36774 19.1778 10.1818 20.1819 10.1818Z" stroke="currentColor" stroke-width="1.5" stroke-miterlimit="10" stroke-linecap="square"></path><path d="M3.81818 10.1818C4.82233 10.1818 5.63636 9.36774 5.63636 8.36359C5.63636 7.35944 4.82233 6.54541 3.81818 6.54541C2.81403 6.54541 2 7.35944 2 8.36359C2 9.36774 2.81403 10.1818 3.81818 10.1818Z" stroke="currentColor" stroke-width="1.5" stroke-miterlimit="10" stroke-linecap="square"></path><path d="M9.85698 16.9995L6.73805 18.8002C6.06987 19.0865 5.63623 19.7438 5.63623 20.4715V21.9997H18.3635V20.4715C18.3635 19.7443 17.9299 19.087 17.2617 18.8002L14.1427 16.9995" stroke="currentColor" stroke-width="1.5" stroke-miterlimit="10"></path><path d="M12 17.7141C10.4221 17.7141 9.14282 16.2927 9.14282 14.5395V13.7459C9.14282 11.9927 10.4221 10.5713 12 10.5713C13.5778 10.5713 14.8571 11.9927 14.8571 13.7459V14.5395C14.8571 16.2927 13.5778 17.7141 12 17.7141Z" stroke="currentColor" stroke-width="1.5" stroke-miterlimit="10" stroke-linecap="square"></path></svg>