<svg xmlns:xlink="http://www.w3.org/1999/xlink" xmlns="http://www.w3.org/2000/svg" width="280" height="134" viewBox="0 0 280 134" fill="none">
<g clip-path="url(#clip0_2602_86424)">
<rect width="280" height="134" fill="#E8FEFF"></rect>
<g opacity="0.6">
<mask id="mask0_2602_86424" style="mask-type:alpha" maskUnits="userSpaceOnUse" x="-58" y="101" width="322" height="61">
<path d="M68.4939 101.312H264L137.506 161.312H-58L68.4939 101.312Z" fill="#D9D9D9"></path>
</mask>
<g mask="url(#mask0_2602_86424)">
<path fill-rule="evenodd" clip-rule="evenodd" d="M-137.617 209.177L307.993 207.576L307.974 202.302L307.972 202.302L307.958 198.27L307.959 198.27L307.942 193.622L307.942 193.622L307.925 188.856L307.924 188.856L307.908 184.374L-137.702 185.975L-137.685 190.57L-137.685 190.57L-137.669 194.939L-137.669 194.939L-137.653 199.421L-137.654 199.421L-137.636 204.525L-137.634 204.525L-137.617 209.177ZM307.908 184.318L-137.702 185.919L-137.718 181.495L307.892 179.894L307.908 184.318ZM-137.72 181.269L307.891 179.668L307.875 175.409L-137.735 177.01L-137.72 181.269ZM307.872 175.016L-137.738 176.617L-137.753 172.53L307.857 170.929L307.872 175.016ZM-137.753 171.965L307.857 170.364L307.843 166.448L-137.767 168.049L-137.753 171.965ZM307.84 165.714L-137.77 167.315L-137.784 163.565L307.826 161.964L307.84 165.714ZM-137.788 162.662L307.822 161.061L307.809 157.482L-137.801 159.083L-137.788 162.662ZM307.806 156.41L-137.804 158.011L-137.817 154.603L307.793 153.002L307.806 156.41ZM-137.821 153.359L307.789 151.758L307.777 148.521L-137.833 150.122L-137.821 153.359ZM307.773 147.107L-137.837 148.708L-137.848 145.637L307.762 144.036L307.773 147.107ZM-137.854 144.056L307.756 142.455L307.745 139.555L-137.865 141.156L-137.854 144.056ZM307.738 137.802L-137.872 139.403L-137.882 136.675L307.728 135.074L307.738 137.802ZM-137.889 134.754L307.721 133.153L307.711 130.59L-137.899 132.191L-137.889 134.754ZM307.705 128.501L-137.905 130.102L-137.914 127.71L307.696 126.109L307.705 128.501ZM-137.923 125.449L307.687 123.848L307.679 121.627L-137.931 123.228L-137.923 125.449ZM307.671 119.198L-137.939 120.799L-137.947 118.744L307.663 117.143L307.671 119.198ZM-137.956 116.147L307.654 114.546L307.647 112.662L-137.963 114.263L-137.956 116.147ZM307.637 109.894L-137.973 111.495L-137.98 109.782L307.63 108.181L307.637 109.894ZM-137.988 106.845L307.622 105.244L307.616 103.697L-137.994 105.298L-137.988 106.845ZM307.605 100.591L-138.005 102.192L-138.01 100.816L307.6 99.2153L307.605 100.591ZM-138.026 97.5407L307.584 95.9397L307.58 94.7352L-138.031 96.3362L-138.026 97.5407ZM307.571 91.2869L-138.039 92.8879L-138.043 91.8546L307.568 90.2536L307.571 91.2869ZM-138.058 88.2394L307.552 86.6384L307.549 85.7708L-138.062 87.3717L-138.058 88.2394ZM307.537 81.9856L-138.073 83.5866L-138.076 82.8902L307.535 81.2892L307.537 81.9856ZM307.52 77.3337L-138.09 78.9347L-138.092 78.4096L307.519 76.8086L307.52 77.3337Z" fill="#9ED8DA"></path>
</g>
</g>
<path d="M39.8321 29.0858L38.7767 28.1187C36.7325 26.2458 33.6144 26.2458 31.5702 28.1187L30.5147 29.0858L29.0906 29.0301C26.3325 28.9223 23.9439 30.9463 23.5701 33.708L23.3771 35.1339L22.2508 36.0156C20.0693 37.7234 19.5279 40.8244 20.9994 43.1825L21.7592 44.4002L21.4576 45.8068C20.9835 48.0178 21.9213 50.2307 23.6966 51.4411L19.8338 59.7249C19.4282 60.5948 20.1136 61.5783 21.0701 61.4989L25.6781 61.1164C26.1192 61.0798 26.5467 61.2792 26.8022 61.6406L29.4712 65.4164C30.0252 66.2001 31.2192 66.093 31.6248 65.2232L34.9148 58.1676L38.2049 65.2232C38.6105 66.093 39.8045 66.2001 40.3585 65.4164L43.0275 61.6406C43.283 61.2792 43.7105 61.0798 44.1516 61.1164L48.7596 61.4989C49.7161 61.5783 50.4015 60.5948 49.9959 59.7249L46.2488 51.6894C48.2813 50.5533 49.3979 48.179 48.8892 45.8068L48.5877 44.4002L49.3474 43.1825C50.8189 40.8244 50.2775 37.7234 48.0961 36.0156L46.9697 35.1339L46.7767 33.708C46.4029 30.9463 44.0143 28.9223 41.2562 29.0301L39.8321 29.0858Z" fill="#007C80"></path>
<path d="M29.0442 47.6311C28.7524 47.0055 29.0231 46.2617 29.6488 45.97L39.174 41.5283C39.7997 41.2365 40.5434 41.5072 40.8352 42.1329L48.8221 59.261C49.2277 60.1308 48.5423 61.1144 47.5858 61.035L42.9778 60.6525C42.5368 60.6159 42.1092 60.8153 41.8537 61.1767L39.1847 64.9525C38.6307 65.7362 37.4367 65.6291 37.0311 64.7592L29.0442 47.6311Z" fill="#E3AA49"></path>
<path d="M38.438 47.6311C38.7297 47.0055 38.459 46.2617 37.8334 45.97L28.3081 41.5283C27.6825 41.2365 26.9387 41.5072 26.647 42.1329L18.66 59.261C18.2544 60.1308 18.9398 61.1144 19.8963 61.035L24.5043 60.6525C24.9454 60.6159 25.373 60.8153 25.6284 61.1767L28.2974 64.9525C28.8514 65.7362 30.0454 65.6291 30.451 64.7592L38.438 47.6311Z" fill="#FAD48D"></path>
<path d="M32.1976 29.6603C33.2197 28.7239 34.7788 28.7239 35.8009 29.6603L36.8564 30.6274C37.3762 31.1037 38.0603 31.3551 38.7617 31.3277L40.1858 31.272C41.5648 31.2181 42.7591 32.2301 42.946 33.611L43.139 35.0369C43.2341 35.7392 43.5981 36.3759 44.1528 36.8102L45.2792 37.6919C46.3699 38.5458 46.6406 40.0963 45.9049 41.2754L45.1451 42.493C44.7709 43.0927 44.6445 43.8167 44.793 44.5094L45.0946 45.916C45.3866 47.2781 44.6071 48.6416 43.2929 49.0673L41.9359 49.5068C41.2675 49.7233 40.7098 50.1959 40.3826 50.823L39.7183 52.0963C39.0751 53.3293 37.61 53.8677 36.3324 53.3408L35.0131 52.7966C34.3632 52.5286 33.6353 52.5286 32.9854 52.7966L31.6661 53.3408C30.3885 53.8677 28.9235 53.3293 28.2802 52.0963L27.6159 50.823C27.2887 50.1959 26.731 49.7233 26.0626 49.5068L24.7056 49.0673C23.3914 48.6416 22.6119 47.2781 22.9039 45.916L23.2055 44.5094C23.3541 43.8167 23.2276 43.0927 22.8534 42.493L22.0936 41.2754C21.3579 40.0963 21.6286 38.5458 22.7193 37.6919L23.8457 36.8102C24.4004 36.3759 24.7644 35.7392 24.8595 35.0369L25.0525 33.611C25.2394 32.2301 26.4337 31.2181 27.8127 31.272L29.2368 31.3277C29.9382 31.3551 30.6223 31.1037 31.1422 30.6274L32.1976 29.6603Z" fill="#1DBABF"></path>
<path d="M34.1465 52.5993C34.4418 52.6156 34.7351 52.6812 35.014 52.7963L36.3334 53.3404C37.611 53.8674 39.076 53.3289 39.7193 52.0959L40.3836 50.8226C40.7108 50.1955 41.2685 49.723 41.9369 49.5065L43.2939 49.0669C44.6081 48.6413 45.3876 47.2778 45.0956 45.9157L44.794 44.5091C44.6454 43.8163 44.7718 43.0923 45.1461 42.4926L45.9058 41.275C46.6416 40.0959 46.3709 38.5454 45.2801 37.6916L44.1538 36.8098C43.599 36.3755 43.2351 35.7389 43.14 35.0365L42.947 33.6106C42.7601 32.2298 41.5658 31.2178 40.1868 31.2717L38.7627 31.3274C38.0613 31.3548 37.3772 31.1033 36.8573 30.627L35.8019 29.66C35.3294 29.2272 34.7423 28.9944 34.1465 28.9617V52.5993Z" fill="#009BA1"></path>
<path d="M32.8635 35.9608C33.3103 34.9922 34.6869 34.9922 35.1337 35.9608L36.1742 38.2168C36.3563 38.6115 36.7304 38.8833 37.1621 38.9345L39.6292 39.227C40.6885 39.3526 41.1139 40.6618 40.3307 41.386L38.5068 43.0728C38.1876 43.368 38.0447 43.8077 38.1294 44.2341L38.6136 46.6709C38.8215 47.7171 37.7078 48.5262 36.777 48.0052L34.6092 46.7917C34.2298 46.5794 33.7674 46.5794 33.3881 46.7917L31.2202 48.0052C30.2895 48.5262 29.1758 47.7171 29.3836 46.6709L29.8678 44.2341C29.9525 43.8077 29.8096 43.368 29.4905 43.0728L27.6665 41.386C26.8834 40.6618 27.3088 39.3526 28.368 39.227L30.8351 38.9345C31.2668 38.8833 31.6409 38.6115 31.823 38.2168L32.8635 35.9608Z" fill="#E8FEFF"></path>
<path fill-rule="evenodd" clip-rule="evenodd" d="M37.6032 27.6547L38.6587 28.6217L40.0828 28.5661C42.8409 28.4582 45.2295 30.4823 45.6033 33.2439L45.7963 34.6698L46.9226 35.5516C49.1041 37.2593 49.6455 40.3603 48.174 42.7185L47.4142 43.9361L47.7158 45.3427C48.2999 48.0669 46.7408 50.7939 44.1126 51.6452L42.7555 52.0847L42.0912 53.358C40.8046 55.824 37.8746 56.901 35.3193 55.847L34 55.3029L32.6807 55.847C30.1254 56.901 27.1954 55.824 25.9088 53.358L25.2445 52.0847L23.8874 51.6452C21.2592 50.7939 19.7001 48.0669 20.2842 45.3427L20.5858 43.9361L19.826 42.7185C18.3545 40.3603 18.8959 37.2593 21.0774 35.5516L22.2037 34.6699L23.8464 36.8098L22.7201 37.6915C21.6294 38.5454 21.3586 40.0959 22.0944 41.275L22.8542 42.4926C23.2284 43.0923 23.3548 43.8163 23.2063 44.5091L22.9047 45.9157C22.6127 47.2778 23.3922 48.6413 24.7063 49.0669L26.0634 49.5065C26.7318 49.723 27.2894 50.1955 27.6166 50.8226L28.2809 52.0959C28.9242 53.3289 30.3892 53.8674 31.6668 53.3404L32.9862 52.7962C33.636 52.5282 34.364 52.5282 35.0138 52.7962L36.3332 53.3404C37.6108 53.8674 39.0758 53.3289 39.7191 52.0959L40.3834 50.8226C40.7106 50.1955 41.2682 49.723 41.9366 49.5065L43.2937 49.0669C44.6078 48.6413 45.3874 47.2778 45.0953 45.9157L44.7937 44.5091C44.6452 43.8163 44.7716 43.0923 45.1458 42.4926L45.9056 41.275C46.6414 40.0959 46.3706 38.5454 45.2799 37.6915L44.1536 36.8098C43.5988 36.3755 43.2348 35.7388 43.1398 35.0365L42.9468 33.6106C42.7599 32.2298 41.5655 31.2178 40.1865 31.2717L38.7624 31.3273C38.061 31.3548 37.377 31.1033 36.8571 30.627L35.8016 29.66C34.7795 28.7235 33.2205 28.7235 32.1984 29.66L31.1429 30.627C30.623 31.1033 29.939 31.3548 29.2376 31.3273L27.8135 31.2717C26.4344 31.2178 25.2401 32.2298 25.0532 33.6106L24.8602 35.0365C24.7652 35.7388 24.4012 36.3755 23.8464 36.8098L22.2037 34.6699L22.3967 33.2439C22.7705 30.4823 25.1591 28.4582 27.9172 28.5661L29.3413 28.6217L30.3968 27.6547C32.4409 25.7818 35.5591 25.7818 37.6032 27.6547Z" fill="white"></path>
<path d="M69.316 31V21.2H70.954L76.638 28.858L76.33 28.914C76.2927 28.6527 76.26 28.3867 76.232 28.116C76.204 27.836 76.176 27.5467 76.148 27.248C76.1293 26.9493 76.1107 26.6367 76.092 26.31C76.0827 25.9833 76.0733 25.6427 76.064 25.288C76.0547 24.924 76.05 24.5413 76.05 24.14V21.2H77.856V31H76.19L70.478 23.454L70.842 23.356C70.8887 23.8787 70.926 24.3267 70.954 24.7C70.9913 25.064 71.0193 25.3813 71.038 25.652C71.0567 25.9133 71.0707 26.1327 71.08 26.31C71.0987 26.4873 71.108 26.6507 71.108 26.8C71.1173 26.94 71.122 27.0753 71.122 27.206V31H69.316ZM82.7639 31.14C82.1573 31.14 81.6066 30.972 81.1119 30.636C80.6173 30.3 80.2206 29.8427 79.9219 29.264C79.6233 28.6853 79.4739 28.0273 79.4739 27.29C79.4739 26.5527 79.6233 25.8947 79.9219 25.316C80.2206 24.7373 80.6266 24.2847 81.1399 23.958C81.6533 23.6313 82.2319 23.468 82.8759 23.468C83.2493 23.468 83.5899 23.524 83.8979 23.636C84.2059 23.7387 84.4766 23.888 84.7099 24.084C84.9433 24.28 85.1346 24.504 85.2839 24.756C85.4426 25.008 85.5499 25.2787 85.6059 25.568L85.2279 25.47V23.622H86.9639V31H85.2139V29.236L85.6199 29.166C85.5546 29.418 85.4333 29.6653 85.2559 29.908C85.0879 30.1413 84.8733 30.3513 84.6119 30.538C84.3599 30.7153 84.0753 30.86 83.7579 30.972C83.4499 31.084 83.1186 31.14 82.7639 31.14ZM83.2399 29.614C83.6413 29.614 83.9959 29.516 84.3039 29.32C84.6119 29.124 84.8499 28.8533 85.0179 28.508C85.1953 28.1533 85.2839 27.7473 85.2839 27.29C85.2839 26.842 85.1953 26.4453 85.0179 26.1C84.8499 25.7547 84.6119 25.484 84.3039 25.288C83.9959 25.092 83.6413 24.994 83.2399 24.994C82.8386 24.994 82.4839 25.092 82.1759 25.288C81.8773 25.484 81.6439 25.7547 81.4759 26.1C81.3079 26.4453 81.2239 26.842 81.2239 27.29C81.2239 27.7473 81.3079 28.1533 81.4759 28.508C81.6439 28.8533 81.8773 29.124 82.1759 29.32C82.4839 29.516 82.8386 29.614 83.2399 29.614ZM81.7279 22.53L81.0979 21.984L82.8479 20.318H84.1079L85.8579 21.984L85.2279 22.53L83.2679 21.452H83.6879L81.7279 22.53ZM88.7603 31V23.622H90.4403L90.4683 25.134L90.1463 25.302C90.2397 24.966 90.4217 24.6627 90.6923 24.392C90.963 24.112 91.285 23.888 91.6583 23.72C92.0317 23.552 92.4143 23.468 92.8063 23.468C93.3663 23.468 93.833 23.58 94.2063 23.804C94.589 24.028 94.8737 24.364 95.0603 24.812C95.2563 25.26 95.3543 25.82 95.3543 26.492V31H93.6323V26.618C93.6323 26.2447 93.581 25.9367 93.4783 25.694C93.3757 25.442 93.217 25.26 93.0023 25.148C92.7877 25.0267 92.5263 24.9707 92.2183 24.98C91.9663 24.98 91.733 25.022 91.5183 25.106C91.313 25.1807 91.131 25.2927 90.9723 25.442C90.823 25.582 90.7017 25.7453 90.6083 25.932C90.5243 26.1187 90.4823 26.324 90.4823 26.548V31H89.6283C89.4603 31 89.3017 31 89.1523 31C89.0123 31 88.8817 31 88.7603 31ZM100.41 34.22C99.8589 34.22 99.3083 34.136 98.7576 33.968C98.2163 33.8 97.7776 33.5807 97.4416 33.31L98.0576 32.036C98.2536 32.176 98.4729 32.2973 98.7156 32.4C98.9583 32.5027 99.2149 32.582 99.4856 32.638C99.7656 32.694 100.041 32.722 100.312 32.722C100.806 32.722 101.217 32.6427 101.544 32.484C101.88 32.3347 102.132 32.1013 102.3 31.784C102.468 31.476 102.552 31.0887 102.552 30.622V29.264L102.804 29.362C102.748 29.6513 102.594 29.9267 102.342 30.188C102.09 30.4493 101.772 30.664 101.39 30.832C101.007 30.9907 100.615 31.07 100.214 31.07C99.5136 31.07 98.8929 30.9067 98.3516 30.58C97.8196 30.2533 97.3949 29.81 97.0776 29.25C96.7696 28.6807 96.6156 28.0273 96.6156 27.29C96.6156 26.5527 96.7696 25.8993 97.0776 25.33C97.3856 24.7513 97.8056 24.2987 98.3376 23.972C98.8789 23.636 99.4856 23.468 100.158 23.468C100.438 23.468 100.708 23.5007 100.97 23.566C101.231 23.6313 101.469 23.7247 101.684 23.846C101.908 23.9673 102.108 24.1027 102.286 24.252C102.463 24.4013 102.608 24.56 102.72 24.728C102.832 24.896 102.902 25.0593 102.93 25.218L102.566 25.33L102.594 23.622H104.288V30.496C104.288 31.0933 104.199 31.6207 104.022 32.078C103.844 32.5353 103.588 32.9227 103.252 33.24C102.916 33.5667 102.51 33.8093 102.034 33.968C101.558 34.136 101.016 34.22 100.41 34.22ZM100.48 29.6C100.9 29.6 101.268 29.502 101.586 29.306C101.912 29.11 102.164 28.8393 102.342 28.494C102.519 28.1487 102.608 27.752 102.608 27.304C102.608 26.8467 102.514 26.4453 102.328 26.1C102.15 25.7453 101.903 25.47 101.586 25.274C101.268 25.078 100.9 24.98 100.48 24.98C100.06 24.98 99.6909 25.0827 99.3736 25.288C99.0563 25.484 98.8043 25.7593 98.6176 26.114C98.4403 26.4593 98.3516 26.856 98.3516 27.304C98.3516 27.7427 98.4403 28.1393 98.6176 28.494C98.8043 28.8393 99.0563 29.11 99.3736 29.306C99.6909 29.502 100.06 29.6 100.48 29.6ZM110.792 31V21.746H112.514V31H110.792ZM109.336 25.218V23.622H114.124V25.218H109.336ZM117.953 31.14C117.347 31.14 116.796 30.972 116.301 30.636C115.807 30.3 115.41 29.8427 115.111 29.264C114.813 28.6853 114.663 28.0273 114.663 27.29C114.663 26.5527 114.813 25.8947 115.111 25.316C115.41 24.7373 115.816 24.2847 116.329 23.958C116.843 23.6313 117.421 23.468 118.065 23.468C118.439 23.468 118.779 23.524 119.087 23.636C119.395 23.7387 119.666 23.888 119.899 24.084C120.133 24.28 120.324 24.504 120.473 24.756C120.632 25.008 120.739 25.2787 120.795 25.568L120.417 25.47V23.622H122.153V31H120.403V29.236L120.809 29.166C120.744 29.418 120.623 29.6653 120.445 29.908C120.277 30.1413 120.063 30.3513 119.801 30.538C119.549 30.7153 119.265 30.86 118.947 30.972C118.639 31.084 118.308 31.14 117.953 31.14ZM118.429 29.614C118.831 29.614 119.185 29.516 119.493 29.32C119.801 29.124 120.039 28.8533 120.207 28.508C120.385 28.1533 120.473 27.7473 120.473 27.29C120.473 26.842 120.385 26.4453 120.207 26.1C120.039 25.7547 119.801 25.484 119.493 25.288C119.185 25.092 118.831 24.994 118.429 24.994C118.028 24.994 117.673 25.092 117.365 25.288C117.067 25.484 116.833 25.7547 116.665 26.1C116.497 26.4453 116.413 26.842 116.413 27.29C116.413 27.7473 116.497 28.1533 116.665 28.508C116.833 28.8533 117.067 29.124 117.365 29.32C117.673 29.516 118.028 29.614 118.429 29.614ZM116.917 22.53L116.343 21.97L118.037 20.416H119.283L120.977 21.97L120.403 22.53L118.443 21.536H118.863L116.917 22.53ZM120.879 20.556L119.129 18.778L120.403 17.84L121.621 19.982L120.879 20.556ZM123.922 31V23.622H125.616L125.644 25.106L125.364 25.218C125.448 24.9753 125.574 24.7513 125.742 24.546C125.91 24.3313 126.11 24.1493 126.344 24C126.577 23.8413 126.824 23.72 127.086 23.636C127.347 23.5427 127.613 23.496 127.884 23.496C128.285 23.496 128.64 23.5613 128.948 23.692C129.265 23.8133 129.526 24.0093 129.732 24.28C129.946 24.5507 130.105 24.896 130.208 25.316L129.942 25.26L130.054 25.036C130.156 24.812 130.301 24.6113 130.488 24.434C130.674 24.2473 130.884 24.084 131.118 23.944C131.351 23.7947 131.594 23.6827 131.846 23.608C132.107 23.5333 132.364 23.496 132.616 23.496C133.176 23.496 133.642 23.608 134.016 23.832C134.389 24.056 134.669 24.3967 134.856 24.854C135.042 25.3113 135.136 25.876 135.136 26.548V31H133.4V26.66C133.4 26.2867 133.348 25.9787 133.246 25.736C133.152 25.4933 133.003 25.316 132.798 25.204C132.602 25.0827 132.354 25.022 132.056 25.022C131.822 25.022 131.598 25.064 131.384 25.148C131.178 25.2227 131.001 25.3347 130.852 25.484C130.702 25.624 130.586 25.7873 130.502 25.974C130.418 26.1607 130.376 26.366 130.376 26.59V31H128.64V26.646C128.64 26.2913 128.588 25.9973 128.486 25.764C128.383 25.5213 128.234 25.3393 128.038 25.218C127.842 25.0873 127.604 25.022 127.324 25.022C127.09 25.022 126.871 25.064 126.666 25.148C126.46 25.2227 126.283 25.33 126.134 25.47C125.984 25.61 125.868 25.7733 125.784 25.96C125.7 26.1467 125.658 26.352 125.658 26.576V31H123.922ZM141.561 31V21.746H143.283V31H141.561ZM140.105 25.218V23.622H144.893V25.218H140.105ZM146.004 31V20.64H147.712V25.134L147.39 25.302C147.483 24.966 147.665 24.6627 147.936 24.392C148.207 24.112 148.529 23.888 148.902 23.72C149.275 23.552 149.658 23.468 150.05 23.468C150.61 23.468 151.077 23.58 151.45 23.804C151.833 24.028 152.117 24.364 152.304 24.812C152.5 25.26 152.598 25.82 152.598 26.492V31H150.876V26.618C150.876 26.2447 150.825 25.9367 150.722 25.694C150.619 25.442 150.461 25.26 150.246 25.148C150.031 25.0267 149.77 24.9707 149.462 24.98C149.21 24.98 148.977 25.022 148.762 25.106C148.557 25.1807 148.375 25.2927 148.216 25.442C148.067 25.582 147.945 25.7453 147.852 25.932C147.768 26.1187 147.726 26.324 147.726 26.548V31H146.872C146.704 31 146.545 31 146.396 31C146.256 31 146.125 31 146.004 31ZM156.897 31.14C156.365 31.14 155.903 31.0233 155.511 30.79C155.119 30.5473 154.821 30.2067 154.615 29.768C154.41 29.32 154.307 28.788 154.307 28.172V23.622H156.029V27.808C156.029 28.2 156.09 28.536 156.211 28.816C156.333 29.0867 156.51 29.2967 156.743 29.446C156.977 29.5953 157.257 29.67 157.583 29.67C157.826 29.67 158.045 29.6327 158.241 29.558C158.447 29.474 158.624 29.362 158.773 29.222C158.923 29.0727 159.039 28.9 159.123 28.704C159.207 28.4987 159.249 28.2793 159.249 28.046V23.622C159.529 23.622 159.767 23.5893 159.963 23.524C160.169 23.4587 160.332 23.3607 160.453 23.23C160.575 23.0993 160.663 22.936 160.719 22.74C160.785 22.5347 160.817 22.2967 160.817 22.026H162.161C162.161 22.418 162.105 22.7867 161.993 23.132C161.881 23.468 161.704 23.7573 161.461 24C161.219 24.2333 160.906 24.392 160.523 24.476L160.971 23.734V31H159.291L159.263 29.264L159.473 29.544C159.333 29.852 159.133 30.1273 158.871 30.37C158.61 30.6127 158.311 30.804 157.975 30.944C157.639 31.0747 157.28 31.14 156.897 31.14ZM166.164 31.14C165.426 31.14 164.768 30.9767 164.19 30.65C163.611 30.314 163.154 29.8567 162.818 29.278C162.482 28.6993 162.314 28.0413 162.314 27.304C162.314 26.5667 162.482 25.9087 162.818 25.33C163.154 24.7513 163.611 24.2987 164.19 23.972C164.768 23.636 165.426 23.468 166.164 23.468C166.35 23.468 166.523 23.482 166.682 23.51C166.85 23.5287 166.999 23.552 167.13 23.58C167.223 23.5987 167.307 23.6173 167.382 23.636C167.456 23.6453 167.522 23.65 167.578 23.65C167.96 23.65 168.24 23.5147 168.418 23.244C168.604 22.964 168.698 22.558 168.698 22.026H170.042C170.042 22.446 169.986 22.8333 169.874 23.188C169.762 23.5427 169.58 23.8413 169.328 24.084C169.076 24.3173 168.749 24.4807 168.348 24.574L168.474 24.21C168.95 24.546 169.318 24.98 169.58 25.512C169.85 26.044 169.986 26.6413 169.986 27.304C169.986 28.0413 169.818 28.6993 169.482 29.278C169.155 29.8567 168.702 30.314 168.124 30.65C167.545 30.9767 166.892 31.14 166.164 31.14ZM166.164 29.614C166.565 29.614 166.92 29.5113 167.228 29.306C167.545 29.1007 167.792 28.8253 167.97 28.48C168.156 28.1347 168.245 27.7427 168.236 27.304C168.245 26.856 168.156 26.4593 167.97 26.114C167.792 25.7687 167.545 25.498 167.228 25.302C166.92 25.0967 166.565 24.994 166.164 24.994C165.762 24.994 165.398 25.0967 165.072 25.302C164.754 25.498 164.507 25.7733 164.33 26.128C164.152 26.4733 164.064 26.8653 164.064 27.304C164.064 27.7427 164.152 28.1347 164.33 28.48C164.507 28.8253 164.754 29.1007 165.072 29.306C165.398 29.5113 165.762 29.614 166.164 29.614ZM171.326 31V23.622H173.006L173.034 25.134L172.712 25.302C172.805 24.966 172.987 24.6627 173.258 24.392C173.529 24.112 173.851 23.888 174.224 23.72C174.597 23.552 174.98 23.468 175.372 23.468C175.932 23.468 176.399 23.58 176.772 23.804C177.155 24.028 177.439 24.364 177.626 24.812C177.822 25.26 177.92 25.82 177.92 26.492V31H176.198V26.618C176.198 26.2447 176.147 25.9367 176.044 25.694C175.941 25.442 175.783 25.26 175.568 25.148C175.353 25.0267 175.092 24.9707 174.784 24.98C174.532 24.98 174.299 25.022 174.084 25.106C173.879 25.1807 173.697 25.2927 173.538 25.442C173.389 25.582 173.267 25.7453 173.174 25.932C173.09 26.1187 173.048 26.324 173.048 26.548V31H172.194C172.026 31 171.867 31 171.718 31C171.578 31 171.447 31 171.326 31ZM182.975 34.22C182.425 34.22 181.874 34.136 181.323 33.968C180.782 33.8 180.343 33.5807 180.007 33.31L180.623 32.036C180.819 32.176 181.039 32.2973 181.281 32.4C181.524 32.5027 181.781 32.582 182.051 32.638C182.331 32.694 182.607 32.722 182.877 32.722C183.372 32.722 183.783 32.6427 184.109 32.484C184.445 32.3347 184.697 32.1013 184.865 31.784C185.033 31.476 185.117 31.0887 185.117 30.622V29.264L185.369 29.362C185.313 29.6513 185.159 29.9267 184.907 30.188C184.655 30.4493 184.338 30.664 183.955 30.832C183.573 30.9907 183.181 31.07 182.779 31.07C182.079 31.07 181.459 30.9067 180.917 30.58C180.385 30.2533 179.961 29.81 179.643 29.25C179.335 28.6807 179.181 28.0273 179.181 27.29C179.181 26.5527 179.335 25.8993 179.643 25.33C179.951 24.7513 180.371 24.2987 180.903 23.972C181.445 23.636 182.051 23.468 182.723 23.468C183.003 23.468 183.274 23.5007 183.535 23.566C183.797 23.6313 184.035 23.7247 184.249 23.846C184.473 23.9673 184.674 24.1027 184.851 24.252C185.029 24.4013 185.173 24.56 185.285 24.728C185.397 24.896 185.467 25.0593 185.495 25.218L185.131 25.33L185.159 23.622H186.853V30.496C186.853 31.0933 186.765 31.6207 186.587 32.078C186.41 32.5353 186.153 32.9227 185.817 33.24C185.481 33.5667 185.075 33.8093 184.599 33.968C184.123 34.136 183.582 34.22 182.975 34.22ZM183.045 29.6C183.465 29.6 183.834 29.502 184.151 29.306C184.478 29.11 184.73 28.8393 184.907 28.494C185.085 28.1487 185.173 27.752 185.173 27.304C185.173 26.8467 185.08 26.4453 184.893 26.1C184.716 25.7453 184.469 25.47 184.151 25.274C183.834 25.078 183.465 24.98 183.045 24.98C182.625 24.98 182.257 25.0827 181.939 25.288C181.622 25.484 181.37 25.7593 181.183 26.114C181.006 26.4593 180.917 26.856 180.917 27.304C180.917 27.7427 181.006 28.1393 181.183 28.494C181.37 28.8393 181.622 29.11 181.939 29.306C182.257 29.502 182.625 29.6 183.045 29.6ZM192.56 31V20.64H194.268V25.134L193.946 25.302C194.039 24.966 194.221 24.6627 194.492 24.392C194.763 24.112 195.085 23.888 195.458 23.72C195.831 23.552 196.214 23.468 196.606 23.468C197.166 23.468 197.633 23.58 198.006 23.804C198.389 24.028 198.673 24.364 198.86 24.812C199.056 25.26 199.154 25.82 199.154 26.492V31H197.432V26.618C197.432 26.2447 197.381 25.9367 197.278 25.694C197.175 25.442 197.017 25.26 196.802 25.148C196.587 25.0267 196.326 24.9707 196.018 24.98C195.766 24.98 195.533 25.022 195.318 25.106C195.113 25.1807 194.931 25.2927 194.772 25.442C194.623 25.582 194.501 25.7453 194.408 25.932C194.324 26.1187 194.282 26.324 194.282 26.548V31H193.428C193.26 31 193.101 31 192.952 31C192.812 31 192.681 31 192.56 31ZM201.087 31V23.622H202.809V31H201.087ZM201.927 22.054C201.582 22.054 201.311 21.97 201.115 21.802C200.929 21.6247 200.835 21.3773 200.835 21.06C200.835 20.7613 200.933 20.5187 201.129 20.332C201.325 20.1453 201.591 20.052 201.927 20.052C202.282 20.052 202.553 20.1407 202.739 20.318C202.935 20.486 203.033 20.7333 203.033 21.06C203.033 21.3493 202.935 21.5873 202.739 21.774C202.543 21.9607 202.273 22.054 201.927 22.054ZM208.251 31.14C207.476 31.14 206.79 30.9767 206.193 30.65C205.605 30.3233 205.143 29.88 204.807 29.32C204.48 28.7507 204.317 28.102 204.317 27.374C204.317 26.7953 204.41 26.268 204.597 25.792C204.783 25.316 205.04 24.9053 205.367 24.56C205.703 24.2053 206.099 23.9347 206.557 23.748C207.023 23.552 207.532 23.454 208.083 23.454C208.568 23.454 209.021 23.5473 209.441 23.734C209.861 23.9207 210.225 24.1773 210.533 24.504C210.841 24.8213 211.074 25.204 211.233 25.652C211.401 26.0907 211.48 26.5713 211.471 27.094L211.457 27.696H205.479L205.157 26.52H210.015L209.791 26.758V26.45C209.763 26.1607 209.669 25.9087 209.511 25.694C209.352 25.47 209.147 25.2973 208.895 25.176C208.652 25.0453 208.381 24.98 208.083 24.98C207.625 24.98 207.238 25.0687 206.921 25.246C206.613 25.4233 206.379 25.68 206.221 26.016C206.062 26.3427 205.983 26.7533 205.983 27.248C205.983 27.724 206.081 28.1393 206.277 28.494C206.482 28.8487 206.767 29.124 207.131 29.32C207.504 29.5067 207.938 29.6 208.433 29.6C208.778 29.6 209.095 29.544 209.385 29.432C209.674 29.32 209.987 29.1193 210.323 28.83L211.177 30.02C210.925 30.2533 210.635 30.454 210.309 30.622C209.991 30.7807 209.655 30.9067 209.301 31C208.946 31.0933 208.596 31.14 208.251 31.14ZM208.251 33.968C207.896 33.968 207.621 33.8793 207.425 33.702C207.238 33.534 207.145 33.2867 207.145 32.96C207.145 32.6613 207.243 32.4187 207.439 32.232C207.635 32.0453 207.905 31.952 208.251 31.952C208.605 31.952 208.876 32.0407 209.063 32.218C209.259 32.3953 209.357 32.6427 209.357 32.96C209.357 33.2587 209.259 33.5013 209.063 33.688C208.867 33.8747 208.596 33.968 208.251 33.968ZM206.333 22.53L205.703 21.984L207.453 20.318H208.713L210.463 21.984L209.833 22.53L207.873 21.452H208.293L206.333 22.53ZM215.358 31.14C214.826 31.14 214.364 31.0233 213.972 30.79C213.58 30.5473 213.281 30.2067 213.076 29.768C212.871 29.32 212.768 28.788 212.768 28.172V23.622H214.49V27.808C214.49 28.2 214.551 28.536 214.672 28.816C214.793 29.0867 214.971 29.2967 215.204 29.446C215.437 29.5953 215.717 29.67 216.044 29.67C216.287 29.67 216.506 29.6327 216.702 29.558C216.907 29.474 217.085 29.362 217.234 29.222C217.383 29.0727 217.5 28.9 217.584 28.704C217.668 28.4987 217.71 28.2793 217.71 28.046V23.622H219.432V31H217.752L217.724 29.46L218.032 29.292C217.92 29.6467 217.729 29.964 217.458 30.244C217.197 30.5147 216.884 30.734 216.52 30.902C216.156 31.0607 215.769 31.14 215.358 31.14ZM228.329 31.14C227.639 31.14 227.018 30.972 226.467 30.636C225.917 30.3 225.483 29.8427 225.165 29.264C224.848 28.6853 224.689 28.032 224.689 27.304C224.689 26.576 224.848 25.9227 225.165 25.344C225.483 24.7653 225.917 24.308 226.467 23.972C227.018 23.636 227.639 23.468 228.329 23.468C228.992 23.468 229.594 23.594 230.135 23.846C230.677 24.098 231.097 24.448 231.395 24.896L230.443 26.044C230.303 25.848 230.126 25.6707 229.911 25.512C229.697 25.3533 229.468 25.2273 229.225 25.134C228.983 25.0407 228.74 24.994 228.497 24.994C228.087 24.994 227.718 25.0967 227.391 25.302C227.074 25.498 226.822 25.7733 226.635 26.128C226.449 26.4733 226.355 26.8653 226.355 27.304C226.355 27.7427 226.449 28.1347 226.635 28.48C226.831 28.8253 227.093 29.1007 227.419 29.306C227.746 29.5113 228.11 29.614 228.511 29.614C228.754 29.614 228.987 29.5767 229.211 29.502C229.445 29.418 229.664 29.3013 229.869 29.152C230.075 29.0027 230.266 28.816 230.443 28.592L231.395 29.754C231.078 30.1647 230.639 30.5007 230.079 30.762C229.529 31.014 228.945 31.14 228.329 31.14ZM235.298 31.14C234.692 31.14 234.141 30.972 233.646 30.636C233.152 30.3 232.755 29.8427 232.456 29.264C232.158 28.6853 232.008 28.0273 232.008 27.29C232.008 26.5527 232.158 25.8947 232.456 25.316C232.755 24.7373 233.161 24.2847 233.674 23.958C234.188 23.6313 234.766 23.468 235.41 23.468C235.784 23.468 236.124 23.524 236.432 23.636C236.74 23.7387 237.011 23.888 237.244 24.084C237.478 24.28 237.669 24.504 237.818 24.756C237.977 25.008 238.084 25.2787 238.14 25.568L237.762 25.47V23.622H239.498V31H237.748V29.236L238.154 29.166C238.089 29.418 237.968 29.6653 237.79 29.908C237.622 30.1413 237.408 30.3513 237.146 30.538C236.894 30.7153 236.61 30.86 236.292 30.972C235.984 31.084 235.653 31.14 235.298 31.14ZM235.774 29.614C236.176 29.614 236.53 29.516 236.838 29.32C237.146 29.124 237.384 28.8533 237.552 28.508C237.73 28.1533 237.818 27.7473 237.818 27.29C237.818 26.842 237.73 26.4453 237.552 26.1C237.384 25.7547 237.146 25.484 236.838 25.288C236.53 25.092 236.176 24.994 235.774 24.994C235.373 24.994 235.018 25.092 234.71 25.288C234.412 25.484 234.178 25.7547 234.01 26.1C233.842 26.4453 233.758 26.842 233.758 27.29C233.758 27.7473 233.842 28.1533 234.01 28.508C234.178 28.8533 234.412 29.124 234.71 29.32C235.018 29.516 235.373 29.614 235.774 29.614ZM234.99 22.6L234.444 21.774L236.628 19.954L237.58 21.2L234.99 22.6ZM69.008 51V43.622H70.688L70.716 45.134L70.394 45.302C70.4873 44.966 70.6693 44.6627 70.94 44.392C71.2107 44.112 71.5327 43.888 71.906 43.72C72.2793 43.552 72.662 43.468 73.054 43.468C73.614 43.468 74.0807 43.58 74.454 43.804C74.8367 44.028 75.1213 44.364 75.308 44.812C75.504 45.26 75.602 45.82 75.602 46.492V51H73.88V46.618C73.88 46.2447 73.8287 45.9367 73.726 45.694C73.6233 45.442 73.4647 45.26 73.25 45.148C73.0353 45.0267 72.774 44.9707 72.466 44.98C72.214 44.98 71.9807 45.022 71.766 45.106C71.5607 45.1807 71.3787 45.2927 71.22 45.442C71.0707 45.582 70.9493 45.7453 70.856 45.932C70.772 46.1187 70.73 46.324 70.73 46.548V51H69.876C69.708 51 69.5493 51 69.4 51C69.26 51 69.1293 51 69.008 51ZM77.3393 51V40.64H79.0473V45.134L78.7253 45.302C78.8186 44.966 79.0006 44.6627 79.2713 44.392C79.5419 44.112 79.8639 43.888 80.2373 43.72C80.6106 43.552 80.9933 43.468 81.3853 43.468C81.9453 43.468 82.4119 43.58 82.7853 43.804C83.1679 44.028 83.4526 44.364 83.6393 44.812C83.8353 45.26 83.9333 45.82 83.9333 46.492V51H82.2113V46.618C82.2113 46.2447 82.1599 45.9367 82.0573 45.694C81.9546 45.442 81.7959 45.26 81.5813 45.148C81.3666 45.0267 81.1053 44.9707 80.7973 44.98C80.5453 44.98 80.3119 45.022 80.0973 45.106C79.8919 45.1807 79.7099 45.2927 79.5513 45.442C79.4019 45.582 79.2806 45.7453 79.1873 45.932C79.1033 46.1187 79.0613 46.324 79.0613 46.548V51H78.2073C78.0393 51 77.8806 51 77.7313 51C77.5913 51 77.4606 51 77.3393 51ZM88.4565 51.14C87.8498 51.14 87.2992 50.972 86.8045 50.636C86.3098 50.3 85.9132 49.8427 85.6145 49.264C85.3158 48.6853 85.1665 48.0273 85.1665 47.29C85.1665 46.5527 85.3158 45.8947 85.6145 45.316C85.9132 44.7373 86.3192 44.2847 86.8325 43.958C87.3458 43.6313 87.9245 43.468 88.5685 43.468C88.9418 43.468 89.2825 43.524 89.5905 43.636C89.8985 43.7387 90.1692 43.888 90.4025 44.084C90.6358 44.28 90.8272 44.504 90.9765 44.756C91.1352 45.008 91.2425 45.2787 91.2985 45.568L90.9205 45.47V43.622H92.6565V51H90.9065V49.236L91.3125 49.166C91.2472 49.418 91.1258 49.6653 90.9485 49.908C90.7805 50.1413 90.5658 50.3513 90.3045 50.538C90.0525 50.7153 89.7678 50.86 89.4505 50.972C89.1425 51.084 88.8112 51.14 88.4565 51.14ZM88.9325 49.614C89.3338 49.614 89.6885 49.516 89.9965 49.32C90.3045 49.124 90.5425 48.8533 90.7105 48.508C90.8878 48.1533 90.9765 47.7473 90.9765 47.29C90.9765 46.842 90.8878 46.4453 90.7105 46.1C90.5425 45.7547 90.3045 45.484 89.9965 45.288C89.6885 45.092 89.3338 44.994 88.9325 44.994C88.5312 44.994 88.1765 45.092 87.8685 45.288C87.5698 45.484 87.3365 45.7547 87.1685 46.1C87.0005 46.4453 86.9165 46.842 86.9165 47.29C86.9165 47.7473 87.0005 48.1533 87.1685 48.508C87.3365 48.8533 87.5698 49.124 87.8685 49.32C88.1765 49.516 88.5312 49.614 88.9325 49.614ZM87.4205 42.53L86.7905 41.984L88.5405 40.318H89.8005L91.5505 41.984L90.9205 42.53L88.9605 41.452H89.3805L87.4205 42.53ZM94.4529 51V43.622H96.1329L96.1609 45.134L95.8389 45.302C95.9323 44.966 96.1143 44.6627 96.3849 44.392C96.6556 44.112 96.9776 43.888 97.3509 43.72C97.7243 43.552 98.1069 43.468 98.4989 43.468C99.0589 43.468 99.5256 43.58 99.8989 43.804C100.282 44.028 100.566 44.364 100.753 44.812C100.949 45.26 101.047 45.82 101.047 46.492V51H99.3249V46.618C99.3249 46.2447 99.2736 45.9367 99.1709 45.694C99.0683 45.442 98.9096 45.26 98.6949 45.148C98.4803 45.0267 98.2189 44.9707 97.9109 44.98C97.6589 44.98 97.4256 45.022 97.2109 45.106C97.0056 45.1807 96.8236 45.2927 96.6649 45.442C96.5156 45.582 96.3943 45.7453 96.3009 45.932C96.2169 46.1187 96.1749 46.324 96.1749 46.548V51H95.3209C95.1529 51 94.9943 51 94.8449 51C94.7049 51 94.5743 51 94.4529 51ZM109.863 51.14C109.173 51.14 108.552 50.972 108.001 50.636C107.451 50.3 107.017 49.8427 106.699 49.264C106.382 48.6853 106.223 48.032 106.223 47.304C106.223 46.576 106.382 45.9227 106.699 45.344C107.017 44.7653 107.451 44.308 108.001 43.972C108.552 43.636 109.173 43.468 109.863 43.468C110.526 43.468 111.128 43.594 111.669 43.846C112.211 44.098 112.631 44.448 112.929 44.896L111.977 46.044C111.837 45.848 111.66 45.6707 111.445 45.512C111.231 45.3533 111.002 45.2273 110.759 45.134C110.517 45.0407 110.274 44.994 110.031 44.994C109.621 44.994 109.252 45.0967 108.925 45.302C108.608 45.498 108.356 45.7733 108.169 46.128C107.983 46.4733 107.889 46.8653 107.889 47.304C107.889 47.7427 107.983 48.1347 108.169 48.48C108.365 48.8253 108.627 49.1007 108.953 49.306C109.28 49.5113 109.644 49.614 110.045 49.614C110.288 49.614 110.521 49.5767 110.745 49.502C110.979 49.418 111.198 49.3013 111.403 49.152C111.609 49.0027 111.8 48.816 111.977 48.592L112.929 49.754C112.612 50.1647 112.173 50.5007 111.613 50.762C111.063 51.014 110.479 51.14 109.863 51.14ZM116.608 51.14C116.076 51.14 115.614 51.0233 115.222 50.79C114.83 50.5473 114.532 50.2067 114.326 49.768C114.121 49.32 114.018 48.788 114.018 48.172V43.622H115.74V47.808C115.74 48.2 115.801 48.536 115.922 48.816C116.044 49.0867 116.221 49.2967 116.454 49.446C116.688 49.5953 116.968 49.67 117.294 49.67C117.537 49.67 117.756 49.6327 117.952 49.558C118.158 49.474 118.335 49.362 118.484 49.222C118.634 49.0727 118.75 48.9 118.834 48.704C118.918 48.4987 118.96 48.2793 118.96 48.046V43.622H120.682V51H119.002L118.974 49.46L119.282 49.292C119.17 49.6467 118.979 49.964 118.708 50.244C118.447 50.5147 118.134 50.734 117.77 50.902C117.406 51.0607 117.019 51.14 116.608 51.14ZM118.12 42.6L115.53 41.2L116.482 39.94L118.666 41.774L118.12 42.6ZM122.501 51V43.622H124.181L124.209 45.134L123.887 45.302C123.98 44.966 124.162 44.6627 124.433 44.392C124.703 44.112 125.025 43.888 125.399 43.72C125.772 43.552 126.155 43.468 126.547 43.468C127.107 43.468 127.573 43.58 127.947 43.804C128.329 44.028 128.614 44.364 128.801 44.812C128.997 45.26 129.095 45.82 129.095 46.492V51H127.373V46.618C127.373 46.2447 127.321 45.9367 127.219 45.694C127.116 45.442 126.957 45.26 126.743 45.148C126.528 45.0267 126.267 44.9707 125.959 44.98C125.707 44.98 125.473 45.022 125.259 45.106C125.053 45.1807 124.871 45.2927 124.713 45.442C124.563 45.582 124.442 45.7453 124.349 45.932C124.265 46.1187 124.223 46.324 124.223 46.548V51H123.369C123.201 51 123.042 51 122.893 51C122.753 51 122.622 51 122.501 51ZM134.15 54.22C133.599 54.22 133.048 54.136 132.498 53.968C131.956 53.8 131.518 53.5807 131.182 53.31L131.798 52.036C131.994 52.176 132.213 52.2973 132.456 52.4C132.698 52.5027 132.955 52.582 133.226 52.638C133.506 52.694 133.781 52.722 134.052 52.722C134.546 52.722 134.957 52.6427 135.284 52.484C135.62 52.3347 135.872 52.1013 136.04 51.784C136.208 51.476 136.292 51.0887 136.292 50.622V49.264L136.544 49.362C136.488 49.6513 136.334 49.9267 136.082 50.188C135.83 50.4493 135.512 50.664 135.13 50.832C134.747 50.9907 134.355 51.07 133.954 51.07C133.254 51.07 132.633 50.9067 132.092 50.58C131.56 50.2533 131.135 49.81 130.818 49.25C130.51 48.6807 130.356 48.0273 130.356 47.29C130.356 46.5527 130.51 45.8993 130.818 45.33C131.126 44.7513 131.546 44.2987 132.078 43.972C132.619 43.636 133.226 43.468 133.898 43.468C134.178 43.468 134.448 43.5007 134.71 43.566C134.971 43.6313 135.209 43.7247 135.424 43.846C135.648 43.9673 135.848 44.1027 136.026 44.252C136.203 44.4013 136.348 44.56 136.46 44.728C136.572 44.896 136.642 45.0593 136.67 45.218L136.306 45.33L136.334 43.622H138.028V50.496C138.028 51.0933 137.939 51.6207 137.762 52.078C137.584 52.5353 137.328 52.9227 136.992 53.24C136.656 53.5667 136.25 53.8093 135.774 53.968C135.298 54.136 134.756 54.22 134.15 54.22ZM134.22 49.6C134.64 49.6 135.008 49.502 135.326 49.306C135.652 49.11 135.904 48.8393 136.082 48.494C136.259 48.1487 136.348 47.752 136.348 47.304C136.348 46.8467 136.254 46.4453 136.068 46.1C135.89 45.7453 135.643 45.47 135.326 45.274C135.008 45.078 134.64 44.98 134.22 44.98C133.8 44.98 133.431 45.0827 133.114 45.288C132.796 45.484 132.544 45.7593 132.358 46.114C132.18 46.4593 132.092 46.856 132.092 47.304C132.092 47.7427 132.18 48.1393 132.358 48.494C132.544 48.8393 132.796 49.11 133.114 49.306C133.431 49.502 133.8 49.6 134.22 49.6ZM144.533 51V41.746H146.255V51H144.533ZM143.077 45.218V43.622H147.865V45.218H143.077ZM151.694 51.14C151.087 51.14 150.536 50.972 150.042 50.636C149.547 50.3 149.15 49.8427 148.852 49.264C148.553 48.6853 148.404 48.0273 148.404 47.29C148.404 46.5527 148.553 45.8947 148.852 45.316C149.15 44.7373 149.556 44.2847 150.07 43.958C150.583 43.6313 151.162 43.468 151.806 43.468C152.179 43.468 152.52 43.524 152.828 43.636C153.136 43.7387 153.406 43.888 153.64 44.084C153.873 44.28 154.064 44.504 154.214 44.756C154.372 45.008 154.48 45.2787 154.536 45.568L154.158 45.47V43.622H155.894V51H154.144V49.236L154.55 49.166C154.484 49.418 154.363 49.6653 154.186 49.908C154.018 50.1413 153.803 50.3513 153.542 50.538C153.29 50.7153 153.005 50.86 152.688 50.972C152.38 51.084 152.048 51.14 151.694 51.14ZM152.17 49.614C152.571 49.614 152.926 49.516 153.234 49.32C153.542 49.124 153.78 48.8533 153.948 48.508C154.125 48.1533 154.214 47.7473 154.214 47.29C154.214 46.842 154.125 46.4453 153.948 46.1C153.78 45.7547 153.542 45.484 153.234 45.288C152.926 45.092 152.571 44.994 152.17 44.994C151.768 44.994 151.414 45.092 151.106 45.288C150.807 45.484 150.574 45.7547 150.406 46.1C150.238 46.4453 150.154 46.842 150.154 47.29C150.154 47.7473 150.238 48.1533 150.406 48.508C150.574 48.8533 150.807 49.124 151.106 49.32C151.414 49.516 151.768 49.614 152.17 49.614ZM153.15 42.6L150.56 41.2L151.512 39.94L153.696 41.774L153.15 42.6ZM157.886 51V43.622H159.608V51H157.886ZM158.726 42.054C158.381 42.054 158.11 41.97 157.914 41.802C157.727 41.6247 157.634 41.3773 157.634 41.06C157.634 40.7613 157.732 40.5187 157.928 40.332C158.124 40.1453 158.39 40.052 158.726 40.052C159.081 40.052 159.351 40.1407 159.538 40.318C159.734 40.486 159.832 40.7333 159.832 41.06C159.832 41.3493 159.734 41.5873 159.538 41.774C159.342 41.9607 159.071 42.054 158.726 42.054ZM167.117 48.746L166.781 47.136L170.281 43.622H172.577L167.117 48.746ZM165.507 51V40.64H167.229V51H165.507ZM170.491 51L167.775 47.71L168.993 46.674L172.619 51H170.491ZM173.483 51V40.64H175.191V45.134L174.869 45.302C174.962 44.966 175.144 44.6627 175.415 44.392C175.685 44.112 176.007 43.888 176.381 43.72C176.754 43.552 177.137 43.468 177.529 43.468C178.089 43.468 178.555 43.58 178.929 43.804C179.311 44.028 179.596 44.364 179.783 44.812C179.979 45.26 180.077 45.82 180.077 46.492V51H178.355V46.618C178.355 46.2447 178.303 45.9367 178.201 45.694C178.098 45.442 177.939 45.26 177.725 45.148C177.51 45.0267 177.249 44.9707 176.941 44.98C176.689 44.98 176.455 45.022 176.241 45.106C176.035 45.1807 175.853 45.2927 175.695 45.442C175.545 45.582 175.424 45.7453 175.331 45.932C175.247 46.1187 175.205 46.324 175.205 46.548V51H174.351C174.183 51 174.024 51 173.875 51C173.735 51 173.604 51 173.483 51ZM185.188 51.14C184.451 51.14 183.793 50.9767 183.214 50.65C182.635 50.314 182.178 49.8567 181.842 49.278C181.506 48.6993 181.338 48.0413 181.338 47.304C181.338 46.5667 181.506 45.9087 181.842 45.33C182.178 44.7513 182.635 44.2987 183.214 43.972C183.793 43.636 184.451 43.468 185.188 43.468C185.916 43.468 186.569 43.636 187.148 43.972C187.727 44.2987 188.179 44.7513 188.506 45.33C188.842 45.9087 189.01 46.5667 189.01 47.304C189.01 48.0413 188.842 48.6993 188.506 49.278C188.179 49.8567 187.727 50.314 187.148 50.65C186.569 50.9767 185.916 51.14 185.188 51.14ZM185.188 49.614C185.589 49.614 185.944 49.5113 186.252 49.306C186.569 49.1007 186.817 48.8253 186.994 48.48C187.181 48.1347 187.269 47.7427 187.26 47.304C187.269 46.856 187.181 46.4593 186.994 46.114C186.817 45.7687 186.569 45.498 186.252 45.302C185.944 45.0967 185.589 44.994 185.188 44.994C184.787 44.994 184.423 45.0967 184.096 45.302C183.779 45.498 183.531 45.7733 183.354 46.128C183.177 46.4733 183.088 46.8653 183.088 47.304C183.088 47.7427 183.177 48.1347 183.354 48.48C183.531 48.8253 183.779 49.1007 184.096 49.306C184.423 49.5113 184.787 49.614 185.188 49.614ZM193.136 51.14C192.53 51.14 191.979 50.972 191.484 50.636C190.99 50.3 190.593 49.8427 190.294 49.264C189.996 48.6853 189.846 48.0273 189.846 47.29C189.846 46.5527 189.996 45.8947 190.294 45.316C190.593 44.7373 190.999 44.2847 191.512 43.958C192.026 43.6313 192.604 43.468 193.248 43.468C193.622 43.468 193.962 43.524 194.27 43.636C194.578 43.7387 194.849 43.888 195.082 44.084C195.316 44.28 195.507 44.504 195.656 44.756C195.815 45.008 195.922 45.2787 195.978 45.568L195.6 45.47V43.622H197.336V51H195.586V49.236L195.992 49.166C195.927 49.418 195.806 49.6653 195.628 49.908C195.46 50.1413 195.246 50.3513 194.984 50.538C194.732 50.7153 194.448 50.86 194.13 50.972C193.822 51.084 193.491 51.14 193.136 51.14ZM193.612 49.614C194.014 49.614 194.368 49.516 194.676 49.32C194.984 49.124 195.222 48.8533 195.39 48.508C195.568 48.1533 195.656 47.7473 195.656 47.29C195.656 46.842 195.568 46.4453 195.39 46.1C195.222 45.7547 194.984 45.484 194.676 45.288C194.368 45.092 194.014 44.994 193.612 44.994C193.211 44.994 192.856 45.092 192.548 45.288C192.25 45.484 192.016 45.7547 191.848 46.1C191.68 46.4453 191.596 46.842 191.596 47.29C191.596 47.7473 191.68 48.1533 191.848 48.508C192.016 48.8533 192.25 49.124 192.548 49.32C192.856 49.516 193.211 49.614 193.612 49.614ZM193.514 42.712C193.449 42.6187 193.393 42.5253 193.346 42.432C193.309 42.3387 193.29 42.2453 193.29 42.152C193.29 42.0587 193.314 41.9607 193.36 41.858C193.416 41.746 193.524 41.6387 193.682 41.536C193.832 41.4333 193.939 41.354 194.004 41.298C194.07 41.242 194.102 41.1767 194.102 41.102C194.102 41.018 194.06 40.9573 193.976 40.92C193.902 40.8733 193.804 40.85 193.682 40.85C193.514 40.85 193.337 40.878 193.15 40.934C192.973 40.9807 192.796 41.046 192.618 41.13L192.352 40.136C192.548 40.024 192.772 39.9353 193.024 39.87C193.276 39.8047 193.524 39.772 193.766 39.772C194.27 39.772 194.658 39.8793 194.928 40.094C195.199 40.3087 195.334 40.584 195.334 40.92C195.334 41.1813 195.274 41.382 195.152 41.522C195.04 41.662 194.919 41.774 194.788 41.858C194.62 41.942 194.49 42.0213 194.396 42.096C194.312 42.1613 194.27 42.2407 194.27 42.334C194.27 42.362 194.275 42.3947 194.284 42.432C194.294 42.46 194.303 42.488 194.312 42.516L193.514 42.712ZM199.133 51V43.622H200.813L200.841 45.134L200.519 45.302C200.612 44.966 200.794 44.6627 201.065 44.392C201.335 44.112 201.657 43.888 202.031 43.72C202.404 43.552 202.787 43.468 203.179 43.468C203.739 43.468 204.205 43.58 204.579 43.804C204.961 44.028 205.246 44.364 205.433 44.812C205.629 45.26 205.727 45.82 205.727 46.492V51H204.005V46.618C204.005 46.2447 203.953 45.9367 203.851 45.694C203.748 45.442 203.589 45.26 203.375 45.148C203.16 45.0267 202.899 44.9707 202.591 44.98C202.339 44.98 202.105 45.022 201.891 45.106C201.685 45.1807 201.503 45.2927 201.345 45.442C201.195 45.582 201.074 45.7453 200.981 45.932C200.897 46.1187 200.855 46.324 200.855 46.548V51H200.001C199.833 51 199.674 51 199.525 51C199.385 51 199.254 51 199.133 51ZM211.687 51V41.2H213.409L216.979 47.01L215.971 46.996L219.583 41.2H221.221V51H219.415V47.318C219.415 46.478 219.434 45.722 219.471 45.05C219.518 44.378 219.592 43.7107 219.695 43.048L219.919 43.65L216.881 48.34H215.957L213.017 43.692L213.213 43.048C213.316 43.6733 213.386 44.3173 213.423 44.98C213.47 45.6333 213.493 46.4127 213.493 47.318V51H211.687ZM226.721 51.14C225.984 51.14 225.326 50.9767 224.747 50.65C224.168 50.314 223.711 49.8567 223.375 49.278C223.039 48.6993 222.871 48.0413 222.871 47.304C222.871 46.5667 223.039 45.9087 223.375 45.33C223.711 44.7513 224.168 44.2987 224.747 43.972C225.326 43.636 225.984 43.468 226.721 43.468C227.449 43.468 228.102 43.636 228.681 43.972C229.26 44.2987 229.712 44.7513 230.039 45.33C230.375 45.9087 230.543 46.5667 230.543 47.304C230.543 48.0413 230.375 48.6993 230.039 49.278C229.712 49.8567 229.26 50.314 228.681 50.65C228.102 50.9767 227.449 51.14 226.721 51.14ZM226.721 49.614C227.122 49.614 227.477 49.5113 227.785 49.306C228.102 49.1007 228.35 48.8253 228.527 48.48C228.714 48.1347 228.802 47.7427 228.793 47.304C228.802 46.856 228.714 46.4593 228.527 46.114C228.35 45.7687 228.102 45.498 227.785 45.302C227.477 45.0967 227.122 44.994 226.721 44.994C226.32 44.994 225.956 45.0967 225.629 45.302C225.312 45.498 225.064 45.7733 224.887 46.128C224.71 46.4733 224.621 46.8653 224.621 47.304C224.621 47.7427 224.71 48.1347 224.887 48.48C225.064 48.8253 225.312 49.1007 225.629 49.306C225.956 49.5113 226.32 49.614 226.721 49.614ZM224.957 42.53L224.327 41.984L226.077 40.318H227.337L229.087 41.984L228.457 42.53L226.497 41.452H226.917L224.957 42.53ZM232.079 51V43.622H233.801V51H232.079ZM232.919 42.054C232.574 42.054 232.303 41.97 232.107 41.802C231.921 41.6247 231.827 41.3773 231.827 41.06C231.827 40.7613 231.925 40.5187 232.121 40.332C232.317 40.1453 232.583 40.052 232.919 40.052C233.274 40.052 233.545 40.1407 233.731 40.318C233.927 40.486 234.025 40.7333 234.025 41.06C234.025 41.3493 233.927 41.5873 233.731 41.774C233.535 41.9607 233.265 42.054 232.919 42.054ZM243.018 54.22C242.468 54.22 241.917 54.136 241.366 53.968C240.825 53.8 240.386 53.5807 240.05 53.31L240.666 52.036C240.862 52.176 241.082 52.2973 241.324 52.4C241.567 52.5027 241.824 52.582 242.094 52.638C242.374 52.694 242.65 52.722 242.92 52.722C243.415 52.722 243.826 52.6427 244.152 52.484C244.488 52.3347 244.74 52.1013 244.908 51.784C245.076 51.476 245.16 51.0887 245.16 50.622V49.264L245.412 49.362C245.356 49.6513 245.202 49.9267 244.95 50.188C244.698 50.4493 244.381 50.664 243.998 50.832C243.616 50.9907 243.224 51.07 242.822 51.07C242.122 51.07 241.502 50.9067 240.96 50.58C240.428 50.2533 240.004 49.81 239.686 49.25C239.378 48.6807 239.224 48.0273 239.224 47.29C239.224 46.5527 239.378 45.8993 239.686 45.33C239.994 44.7513 240.414 44.2987 240.946 43.972C241.488 43.636 242.094 43.468 242.766 43.468C243.046 43.468 243.317 43.5007 243.578 43.566C243.84 43.6313 244.078 43.7247 244.292 43.846C244.516 43.9673 244.717 44.1027 244.894 44.252C245.072 44.4013 245.216 44.56 245.328 44.728C245.44 44.896 245.51 45.0593 245.538 45.218L245.174 45.33L245.202 43.622H246.896V50.496C246.896 51.0933 246.808 51.6207 246.63 52.078C246.453 52.5353 246.196 52.9227 245.86 53.24C245.524 53.5667 245.118 53.8093 244.642 53.968C244.166 54.136 243.625 54.22 243.018 54.22ZM243.088 49.6C243.508 49.6 243.877 49.502 244.194 49.306C244.521 49.11 244.773 48.8393 244.95 48.494C245.128 48.1487 245.216 47.752 245.216 47.304C245.216 46.8467 245.123 46.4453 244.936 46.1C244.759 45.7453 244.512 45.47 244.194 45.274C243.877 45.078 243.508 44.98 243.088 44.98C242.668 44.98 242.3 45.0827 241.982 45.288C241.665 45.484 241.413 45.7593 241.226 46.114C241.049 46.4593 240.96 46.856 240.96 47.304C240.96 47.7427 241.049 48.1393 241.226 48.494C241.413 48.8393 241.665 49.11 241.982 49.306C242.3 49.502 242.668 49.6 243.088 49.6ZM248.884 51V43.622H250.606V51H248.884ZM249.724 42.054C249.378 42.054 249.108 41.97 248.912 41.802C248.725 41.6247 248.632 41.3773 248.632 41.06C248.632 40.7613 248.73 40.5187 248.926 40.332C249.122 40.1453 249.388 40.052 249.724 40.052C250.078 40.052 250.349 40.1407 250.536 40.318C250.732 40.486 250.83 40.7333 250.83 41.06C250.83 41.3493 250.732 41.5873 250.536 41.774C250.34 41.9607 250.069 42.054 249.724 42.054ZM255.963 51.14C255.226 51.14 254.568 50.9767 253.989 50.65C253.411 50.314 252.953 49.8567 252.617 49.278C252.281 48.6993 252.113 48.0413 252.113 47.304C252.113 46.5667 252.281 45.9087 252.617 45.33C252.953 44.7513 253.411 44.2987 253.989 43.972C254.568 43.636 255.226 43.468 255.963 43.468C256.15 43.468 256.323 43.482 256.481 43.51C256.649 43.5287 256.799 43.552 256.929 43.58C257.023 43.5987 257.107 43.6173 257.181 43.636C257.256 43.6453 257.321 43.65 257.377 43.65C257.76 43.65 258.04 43.5147 258.217 43.244C258.404 42.964 258.497 42.558 258.497 42.026H259.841C259.841 42.446 259.785 42.8333 259.673 43.188C259.561 43.5427 259.379 43.8413 259.127 44.084C258.875 44.3173 258.549 44.4807 258.147 44.574L258.273 44.21C258.749 44.546 259.118 44.98 259.379 45.512C259.65 46.044 259.785 46.6413 259.785 47.304C259.785 48.0413 259.617 48.6993 259.281 49.278C258.955 49.8567 258.502 50.314 257.923 50.65C257.345 50.9767 256.691 51.14 255.963 51.14ZM255.963 49.614C256.365 49.614 256.719 49.5113 257.027 49.306C257.345 49.1007 257.592 48.8253 257.769 48.48C257.956 48.1347 258.045 47.7427 258.035 47.304C258.045 46.856 257.956 46.4593 257.769 46.114C257.592 45.7687 257.345 45.498 257.027 45.302C256.719 45.0967 256.365 44.994 255.963 44.994C255.562 44.994 255.198 45.0967 254.871 45.302C254.554 45.498 254.307 45.7733 254.129 46.128C253.952 46.4733 253.863 46.8653 253.863 47.304C253.863 47.7427 253.952 48.1347 254.129 48.48C254.307 48.8253 254.554 49.1007 254.871 49.306C255.198 49.5113 255.562 49.614 255.963 49.614ZM254.927 42.6L254.381 41.774L256.565 39.954L257.517 41.2L254.927 42.6ZM261.322 51V43.622H263.044V51H261.322ZM262.162 42.054C261.816 42.054 261.546 41.97 261.35 41.802C261.163 41.6247 261.07 41.3773 261.07 41.06C261.07 40.7613 261.168 40.5187 261.364 40.332C261.56 40.1453 261.826 40.052 262.162 40.052C262.516 40.052 262.787 40.1407 262.974 40.318C263.17 40.486 263.268 40.7333 263.268 41.06C263.268 41.3493 263.17 41.5873 262.974 41.774C262.778 41.9607 262.507 42.054 262.162 42.054ZM72.172 71.14C71.4813 71.14 70.8607 70.972 70.31 70.636C69.7593 70.3 69.3253 69.8427 69.008 69.264C68.6907 68.6853 68.532 68.032 68.532 67.304C68.532 66.576 68.6907 65.9227 69.008 65.344C69.3253 64.7653 69.7593 64.308 70.31 63.972C70.8607 63.636 71.4813 63.468 72.172 63.468C72.8347 63.468 73.4367 63.594 73.978 63.846C74.5193 64.098 74.9393 64.448 75.238 64.896L74.286 66.044C74.146 65.848 73.9687 65.6707 73.754 65.512C73.5393 65.3533 73.3107 65.2273 73.068 65.134C72.8253 65.0407 72.5827 64.994 72.34 64.994C71.9293 64.994 71.5607 65.0967 71.234 65.302C70.9167 65.498 70.6647 65.7733 70.478 66.128C70.2913 66.4733 70.198 66.8653 70.198 67.304C70.198 67.7427 70.2913 68.1347 70.478 68.48C70.674 68.8253 70.9353 69.1007 71.262 69.306C71.5887 69.5113 71.9527 69.614 72.354 69.614C72.5967 69.614 72.83 69.5767 73.054 69.502C73.2873 69.418 73.5067 69.3013 73.712 69.152C73.9173 69.0027 74.1087 68.816 74.286 68.592L75.238 69.754C74.9207 70.1647 74.482 70.5007 73.922 70.762C73.3713 71.014 72.788 71.14 72.172 71.14ZM76.3549 71V60.64H78.0629V65.134L77.7409 65.302C77.8342 64.966 78.0162 64.6627 78.2869 64.392C78.5575 64.112 78.8795 63.888 79.2529 63.72C79.6262 63.552 80.0089 63.468 80.4009 63.468C80.9609 63.468 81.4275 63.58 81.8009 63.804C82.1835 64.028 82.4682 64.364 82.6549 64.812C82.8509 65.26 82.9489 65.82 82.9489 66.492V71H81.2269V66.618C81.2269 66.2447 81.1755 65.9367 81.0729 65.694C80.9702 65.442 80.8115 65.26 80.5969 65.148C80.3822 65.0267 80.1209 64.9707 79.8129 64.98C79.5609 64.98 79.3275 65.022 79.1129 65.106C78.9075 65.1807 78.7255 65.2927 78.5669 65.442C78.4175 65.582 78.2962 65.7453 78.2029 65.932C78.1189 66.1187 78.0769 66.324 78.0769 66.548V71H77.2229C77.0549 71 76.8962 71 76.7469 71C76.6069 71 76.4762 71 76.3549 71ZM87.2481 71.14C86.7161 71.14 86.2541 71.0233 85.8621 70.79C85.4701 70.5473 85.1715 70.2067 84.9661 69.768C84.7608 69.32 84.6581 68.788 84.6581 68.172V63.622H86.3801V67.808C86.3801 68.2 86.4408 68.536 86.5621 68.816C86.6835 69.0867 86.8608 69.2967 87.0941 69.446C87.3275 69.5953 87.6075 69.67 87.9341 69.67C88.1768 69.67 88.3961 69.6327 88.5921 69.558C88.7975 69.474 88.9748 69.362 89.1241 69.222C89.2735 69.0727 89.3901 68.9 89.4741 68.704C89.5581 68.4987 89.6001 68.2793 89.6001 68.046V63.622H91.3221V71H89.6421L89.6141 69.46L89.9221 69.292C89.8101 69.6467 89.6188 69.964 89.3481 70.244C89.0868 70.5147 88.7741 70.734 88.4101 70.902C88.0461 71.0607 87.6588 71.14 87.2481 71.14ZM94.2604 74.22L95.8284 70.594L95.8424 71.742L92.2024 63.622H94.1904L96.2204 68.438C96.2858 68.5593 96.3511 68.7227 96.4164 68.928C96.4818 69.124 96.5378 69.32 96.5844 69.516L96.2344 69.628C96.2998 69.4507 96.3698 69.264 96.4444 69.068C96.5191 68.8627 96.5891 68.6527 96.6544 68.438L98.3904 63.622H100.392L97.3124 71L96.0524 74.22H94.2604ZM104.588 71.14C103.813 71.14 103.127 70.9767 102.53 70.65C101.942 70.3233 101.48 69.88 101.144 69.32C100.817 68.7507 100.654 68.102 100.654 67.374C100.654 66.7953 100.747 66.268 100.934 65.792C101.121 65.316 101.377 64.9053 101.704 64.56C102.04 64.2053 102.437 63.9347 102.894 63.748C103.361 63.552 103.869 63.454 104.42 63.454C104.905 63.454 105.358 63.5473 105.778 63.734C106.198 63.9207 106.562 64.1773 106.87 64.504C107.178 64.8213 107.411 65.204 107.57 65.652C107.738 66.0907 107.817 66.5713 107.808 67.094L107.794 67.696H101.816L101.494 66.52H106.352L106.128 66.758V66.45C106.1 66.1607 106.007 65.9087 105.848 65.694C105.689 65.47 105.484 65.2973 105.232 65.176C104.989 65.0453 104.719 64.98 104.42 64.98C103.963 64.98 103.575 65.0687 103.258 65.246C102.95 65.4233 102.717 65.68 102.558 66.016C102.399 66.3427 102.32 66.7533 102.32 67.248C102.32 67.724 102.418 68.1393 102.614 68.494C102.819 68.8487 103.104 69.124 103.468 69.32C103.841 69.5067 104.275 69.6 104.77 69.6C105.115 69.6 105.433 69.544 105.722 69.432C106.011 69.32 106.324 69.1193 106.66 68.83L107.514 70.02C107.262 70.2533 106.973 70.454 106.646 70.622C106.329 70.7807 105.993 70.9067 105.638 71C105.283 71.0933 104.933 71.14 104.588 71.14ZM102.67 62.53L102.04 61.984L103.79 60.318H105.05L106.8 61.984L106.17 62.53L104.21 61.452H104.63L102.67 62.53ZM109.133 71V63.622H110.813L110.841 65.134L110.519 65.302C110.612 64.966 110.794 64.6627 111.065 64.392C111.336 64.112 111.658 63.888 112.031 63.72C112.404 63.552 112.787 63.468 113.179 63.468C113.739 63.468 114.206 63.58 114.579 63.804C114.962 64.028 115.246 64.364 115.433 64.812C115.629 65.26 115.727 65.82 115.727 66.492V71H114.005V66.618C114.005 66.2447 113.954 65.9367 113.851 65.694C113.748 65.442 113.59 65.26 113.375 65.148C113.16 65.0267 112.899 64.9707 112.591 64.98C112.339 64.98 112.106 65.022 111.891 65.106C111.686 65.1807 111.504 65.2927 111.345 65.442C111.196 65.582 111.074 65.7453 110.981 65.932C110.897 66.1187 110.855 66.324 110.855 66.548V71H110.001C109.833 71 109.674 71 109.525 71C109.385 71 109.254 71 109.133 71ZM121.379 71V63.622H123.059L123.087 65.134L122.765 65.302C122.859 64.966 123.041 64.6627 123.311 64.392C123.582 64.112 123.904 63.888 124.277 63.72C124.651 63.552 125.033 63.468 125.425 63.468C125.985 63.468 126.452 63.58 126.825 63.804C127.208 64.028 127.493 64.364 127.679 64.812C127.875 65.26 127.973 65.82 127.973 66.492V71H126.251V66.618C126.251 66.2447 126.2 65.9367 126.097 65.694C125.995 65.442 125.836 65.26 125.621 65.148C125.407 65.0267 125.145 64.9707 124.837 64.98C124.585 64.98 124.352 65.022 124.137 65.106C123.932 65.1807 123.75 65.2927 123.591 65.442C123.442 65.582 123.321 65.7453 123.227 65.932C123.143 66.1187 123.101 66.324 123.101 66.548V71H122.247C122.079 71 121.921 71 121.771 71C121.631 71 121.501 71 121.379 71ZM133.029 74.22C132.478 74.22 131.927 74.136 131.377 73.968C130.835 73.8 130.397 73.5807 130.061 73.31L130.677 72.036C130.873 72.176 131.092 72.2973 131.335 72.4C131.577 72.5027 131.834 72.582 132.105 72.638C132.385 72.694 132.66 72.722 132.931 72.722C133.425 72.722 133.836 72.6427 134.163 72.484C134.499 72.3347 134.751 72.1013 134.919 71.784C135.087 71.476 135.171 71.0887 135.171 70.622V69.264L135.423 69.362C135.367 69.6513 135.213 69.9267 134.961 70.188C134.709 70.4493 134.391 70.664 134.009 70.832C133.626 70.9907 133.234 71.07 132.833 71.07C132.133 71.07 131.512 70.9067 130.971 70.58C130.439 70.2533 130.014 69.81 129.697 69.25C129.389 68.6807 129.235 68.0273 129.235 67.29C129.235 66.5527 129.389 65.8993 129.697 65.33C130.005 64.7513 130.425 64.2987 130.957 63.972C131.498 63.636 132.105 63.468 132.777 63.468C133.057 63.468 133.327 63.5007 133.589 63.566C133.85 63.6313 134.088 63.7247 134.303 63.846C134.527 63.9673 134.727 64.1027 134.905 64.252C135.082 64.4013 135.227 64.56 135.339 64.728C135.451 64.896 135.521 65.0593 135.549 65.218L135.185 65.33L135.213 63.622H136.907V70.496C136.907 71.0933 136.818 71.6207 136.641 72.078C136.463 72.5353 136.207 72.9227 135.871 73.24C135.535 73.5667 135.129 73.8093 134.653 73.968C134.177 74.136 133.635 74.22 133.029 74.22ZM133.099 69.6C133.519 69.6 133.887 69.502 134.205 69.306C134.531 69.11 134.783 68.8393 134.961 68.494C135.138 68.1487 135.227 67.752 135.227 67.304C135.227 66.8467 135.133 66.4453 134.947 66.1C134.769 65.7453 134.522 65.47 134.205 65.274C133.887 65.078 133.519 64.98 133.099 64.98C132.679 64.98 132.31 65.0827 131.993 65.288C131.675 65.484 131.423 65.7593 131.237 66.114C131.059 66.4593 130.971 66.856 130.971 67.304C130.971 67.7427 131.059 68.1393 131.237 68.494C131.423 68.8393 131.675 69.11 131.993 69.306C132.31 69.502 132.679 69.6 133.099 69.6ZM138.698 71V60.64H140.406V65.134L140.084 65.302C140.178 64.966 140.36 64.6627 140.63 64.392C140.901 64.112 141.223 63.888 141.596 63.72C141.97 63.552 142.352 63.468 142.744 63.468C143.304 63.468 143.771 63.58 144.144 63.804C144.527 64.028 144.812 64.364 144.998 64.812C145.194 65.26 145.292 65.82 145.292 66.492V71H143.57V66.618C143.57 66.2447 143.519 65.9367 143.416 65.694C143.314 65.442 143.155 65.26 142.94 65.148C142.726 65.0267 142.464 64.9707 142.156 64.98C141.904 64.98 141.671 65.022 141.456 65.106C141.251 65.1807 141.069 65.2927 140.91 65.442C140.761 65.582 140.64 65.7453 140.546 65.932C140.462 66.1187 140.42 66.324 140.42 66.548V71H139.566C139.398 71 139.24 71 139.09 71C138.95 71 138.82 71 138.698 71ZM147.225 71V63.622H148.947V71H147.225ZM148.065 62.054C147.72 62.054 147.449 61.97 147.253 61.802C147.067 61.6247 146.973 61.3773 146.973 61.06C146.973 60.7613 147.071 60.5187 147.267 60.332C147.463 60.1453 147.729 60.052 148.065 60.052C148.42 60.052 148.691 60.1407 148.877 60.318C149.073 60.486 149.171 60.7333 149.171 61.06C149.171 61.3493 149.073 61.5873 148.877 61.774C148.681 61.9607 148.411 62.054 148.065 62.054ZM154.389 71.14C153.614 71.14 152.928 70.9767 152.331 70.65C151.743 70.3233 151.281 69.88 150.945 69.32C150.618 68.7507 150.455 68.102 150.455 67.374C150.455 66.7953 150.548 66.268 150.735 65.792C150.922 65.316 151.178 64.9053 151.505 64.56C151.841 64.2053 152.238 63.9347 152.695 63.748C153.162 63.552 153.67 63.454 154.221 63.454C154.706 63.454 155.159 63.5473 155.579 63.734C155.999 63.9207 156.363 64.1773 156.671 64.504C156.979 64.8213 157.212 65.204 157.371 65.652C157.539 66.0907 157.618 66.5713 157.609 67.094L157.595 67.696H151.617L151.295 66.52H156.153L155.929 66.758V66.45C155.901 66.1607 155.808 65.9087 155.649 65.694C155.49 65.47 155.285 65.2973 155.033 65.176C154.79 65.0453 154.52 64.98 154.221 64.98C153.764 64.98 153.376 65.0687 153.059 65.246C152.751 65.4233 152.518 65.68 152.359 66.016C152.2 66.3427 152.121 66.7533 152.121 67.248C152.121 67.724 152.219 68.1393 152.415 68.494C152.62 68.8487 152.905 69.124 153.269 69.32C153.642 69.5067 154.076 69.6 154.571 69.6C154.916 69.6 155.234 69.544 155.523 69.432C155.812 69.32 156.125 69.1193 156.461 68.83L157.315 70.02C157.063 70.2533 156.774 70.454 156.447 70.622C156.13 70.7807 155.794 70.9067 155.439 71C155.084 71.0933 154.734 71.14 154.389 71.14ZM154.389 73.968C154.034 73.968 153.759 73.8793 153.563 73.702C153.376 73.534 153.283 73.2867 153.283 72.96C153.283 72.6613 153.381 72.4187 153.577 72.232C153.773 72.0453 154.044 71.952 154.389 71.952C154.744 71.952 155.014 72.0407 155.201 72.218C155.397 72.3953 155.495 72.6427 155.495 72.96C155.495 73.2587 155.397 73.5013 155.201 73.688C155.005 73.8747 154.734 73.968 154.389 73.968ZM152.471 62.53L151.841 61.984L153.591 60.318H154.851L156.601 61.984L155.971 62.53L154.011 61.452H154.431L152.471 62.53ZM158.934 74.08V63.622H160.628L160.656 65.302L160.362 65.176C160.418 64.8867 160.577 64.616 160.838 64.364C161.1 64.1027 161.417 63.8927 161.79 63.734C162.173 63.5753 162.57 63.496 162.98 63.496C163.634 63.496 164.212 63.6593 164.716 63.986C165.23 64.3127 165.631 64.7607 165.92 65.33C166.219 65.8993 166.368 66.5573 166.368 67.304C166.368 68.0413 166.219 68.6993 165.92 69.278C165.631 69.8473 165.23 70.3 164.716 70.636C164.212 70.9627 163.643 71.126 163.008 71.126C162.579 71.126 162.164 71.042 161.762 70.874C161.37 70.706 161.034 70.4867 160.754 70.216C160.484 69.9453 160.316 69.6607 160.25 69.362L160.67 69.166V74.08H158.934ZM162.658 69.6C163.05 69.6 163.4 69.502 163.708 69.306C164.016 69.11 164.254 68.8393 164.422 68.494C164.6 68.1487 164.688 67.752 164.688 67.304C164.688 66.856 164.604 66.464 164.436 66.128C164.268 65.7827 164.03 65.512 163.722 65.316C163.414 65.12 163.06 65.022 162.658 65.022C162.248 65.022 161.888 65.12 161.58 65.316C161.282 65.5027 161.044 65.7687 160.866 66.114C160.689 66.4593 160.6 66.856 160.6 67.304C160.6 67.752 160.689 68.1487 160.866 68.494C161.044 68.8393 161.282 69.11 161.58 69.306C161.888 69.502 162.248 69.6 162.658 69.6Z" fill="#2C2C2C"></path>
<rect x="68" y="86" width="143" height="32" rx="4" fill="#E03C31"></rect>
<path d="M80.9812 102.8V101.4H85.0132V102.8H80.9812ZM81.6812 107V97.2H85.6152C86.3246 97.2 86.9639 97.3167 87.5332 97.55C88.1119 97.7833 88.6066 98.1193 89.0172 98.558C89.4372 98.9967 89.7546 99.5147 89.9692 100.112C90.1932 100.709 90.3052 101.372 90.3052 102.1C90.3052 102.828 90.1932 103.495 89.9692 104.102C89.7546 104.699 89.4419 105.217 89.0312 105.656C88.6206 106.085 88.1259 106.417 87.5472 106.65C86.9686 106.883 86.3246 107 85.6152 107H81.6812ZM83.5012 105.586L83.3612 105.32H85.5452C86.0026 105.32 86.4086 105.245 86.7632 105.096C87.1272 104.947 87.4352 104.732 87.6872 104.452C87.9392 104.172 88.1306 103.836 88.2612 103.444C88.3919 103.043 88.4572 102.595 88.4572 102.1C88.4572 101.605 88.3919 101.162 88.2612 100.77C88.1306 100.369 87.9346 100.028 87.6732 99.748C87.4212 99.468 87.1179 99.2533 86.7632 99.104C86.4086 98.9547 86.0026 98.88 85.5452 98.88H83.3192L83.5012 98.642V105.586ZM94.5549 107.14C93.9483 107.14 93.3976 106.972 92.9029 106.636C92.4083 106.3 92.0116 105.843 91.7129 105.264C91.4143 104.685 91.2649 104.027 91.2649 103.29C91.2649 102.553 91.4143 101.895 91.7129 101.316C92.0116 100.737 92.4176 100.285 92.9309 99.958C93.4443 99.6313 94.0229 99.468 94.6669 99.468C95.0403 99.468 95.3809 99.524 95.6889 99.636C95.9969 99.7387 96.2676 99.888 96.5009 100.084C96.7343 100.28 96.9256 100.504 97.0749 100.756C97.2336 101.008 97.3409 101.279 97.3969 101.568L97.0189 101.47V99.622H98.7549V107H97.0049V105.236L97.4109 105.166C97.3456 105.418 97.2243 105.665 97.0469 105.908C96.8789 106.141 96.6643 106.351 96.4029 106.538C96.1509 106.715 95.8663 106.86 95.5489 106.972C95.2409 107.084 94.9096 107.14 94.5549 107.14ZM95.0309 105.614C95.4323 105.614 95.7869 105.516 96.0949 105.32C96.4029 105.124 96.6409 104.853 96.8089 104.508C96.9863 104.153 97.0749 103.747 97.0749 103.29C97.0749 102.842 96.9863 102.445 96.8089 102.1C96.6409 101.755 96.4029 101.484 96.0949 101.288C95.7869 101.092 95.4323 100.994 95.0309 100.994C94.6296 100.994 94.2749 101.092 93.9669 101.288C93.6683 101.484 93.4349 101.755 93.2669 102.1C93.0989 102.445 93.0149 102.842 93.0149 103.29C93.0149 103.747 93.0989 104.153 93.2669 104.508C93.4349 104.853 93.6683 105.124 93.9669 105.32C94.2749 105.516 94.6296 105.614 95.0309 105.614ZM95.2689 98.698C94.6529 98.698 94.1396 98.502 93.7289 98.11C93.3183 97.718 93.0476 97.186 92.9169 96.514L94.0929 96.346C94.2049 96.682 94.3636 96.9527 94.5689 97.158C94.7743 97.354 95.0076 97.452 95.2689 97.452C95.5303 97.452 95.7636 97.354 95.9689 97.158C96.1743 96.9527 96.3329 96.682 96.4449 96.346L97.6209 96.514C97.4903 97.186 97.2196 97.718 96.8089 98.11C96.3983 98.502 95.8849 98.698 95.2689 98.698ZM100.551 107V99.622H102.231L102.259 101.134L101.937 101.302C102.031 100.966 102.213 100.663 102.483 100.392C102.754 100.112 103.076 99.888 103.449 99.72C103.823 99.552 104.205 99.468 104.597 99.468C105.157 99.468 105.624 99.58 105.997 99.804C106.38 100.028 106.665 100.364 106.851 100.812C107.047 101.26 107.145 101.82 107.145 102.492V107H105.423V102.618C105.423 102.245 105.372 101.937 105.269 101.694C105.167 101.442 105.008 101.26 104.793 101.148C104.579 101.027 104.317 100.971 104.009 100.98C103.757 100.98 103.524 101.022 103.309 101.106C103.104 101.181 102.922 101.293 102.763 101.442C102.614 101.582 102.493 101.745 102.399 101.932C102.315 102.119 102.273 102.324 102.273 102.548V107H101.419C101.251 107 101.093 107 100.943 107C100.803 107 100.673 107 100.551 107ZM112.201 110.22C111.65 110.22 111.099 110.136 110.549 109.968C110.007 109.8 109.569 109.581 109.233 109.31L109.849 108.036C110.045 108.176 110.264 108.297 110.507 108.4C110.749 108.503 111.006 108.582 111.277 108.638C111.557 108.694 111.832 108.722 112.103 108.722C112.597 108.722 113.008 108.643 113.335 108.484C113.671 108.335 113.923 108.101 114.091 107.784C114.259 107.476 114.343 107.089 114.343 106.622V105.264L114.595 105.362C114.539 105.651 114.385 105.927 114.133 106.188C113.881 106.449 113.563 106.664 113.181 106.832C112.798 106.991 112.406 107.07 112.005 107.07C111.305 107.07 110.684 106.907 110.143 106.58C109.611 106.253 109.186 105.81 108.869 105.25C108.561 104.681 108.407 104.027 108.407 103.29C108.407 102.553 108.561 101.899 108.869 101.33C109.177 100.751 109.597 100.299 110.129 99.972C110.67 99.636 111.277 99.468 111.949 99.468C112.229 99.468 112.499 99.5007 112.761 99.566C113.022 99.6313 113.26 99.7247 113.475 99.846C113.699 99.9673 113.899 100.103 114.077 100.252C114.254 100.401 114.399 100.56 114.511 100.728C114.623 100.896 114.693 101.059 114.721 101.218L114.357 101.33L114.385 99.622H116.079V106.496C116.079 107.093 115.99 107.621 115.813 108.078C115.635 108.535 115.379 108.923 115.043 109.24C114.707 109.567 114.301 109.809 113.825 109.968C113.349 110.136 112.807 110.22 112.201 110.22ZM112.271 105.6C112.691 105.6 113.059 105.502 113.377 105.306C113.703 105.11 113.955 104.839 114.133 104.494C114.31 104.149 114.399 103.752 114.399 103.304C114.399 102.847 114.305 102.445 114.119 102.1C113.941 101.745 113.694 101.47 113.377 101.274C113.059 101.078 112.691 100.98 112.271 100.98C111.851 100.98 111.482 101.083 111.165 101.288C110.847 101.484 110.595 101.759 110.409 102.114C110.231 102.459 110.143 102.856 110.143 103.304C110.143 103.743 110.231 104.139 110.409 104.494C110.595 104.839 110.847 105.11 111.165 105.306C111.482 105.502 111.851 105.6 112.271 105.6ZM123.395 104.746L123.059 103.136L126.559 99.622H128.855L123.395 104.746ZM121.785 107V96.64H123.507V107H121.785ZM126.769 107L124.053 103.71L125.271 102.674L128.897 107H126.769ZM130.949 110.22L132.517 106.594L132.531 107.742L128.891 99.622H130.879L132.909 104.438C132.975 104.559 133.04 104.723 133.105 104.928C133.171 105.124 133.227 105.32 133.273 105.516L132.923 105.628C132.989 105.451 133.059 105.264 133.133 105.068C133.208 104.863 133.278 104.653 133.343 104.438L135.079 99.622H137.081L134.001 107L132.741 110.22H130.949ZM131.971 98.6L131.425 97.774L133.609 95.954L134.561 97.2L131.971 98.6ZM141.843 107V99.622H143.537L143.565 101.106L143.285 101.218C143.369 100.975 143.495 100.751 143.663 100.546C143.831 100.331 144.032 100.149 144.265 100C144.498 99.8413 144.746 99.72 145.007 99.636C145.268 99.5427 145.534 99.496 145.805 99.496C146.206 99.496 146.561 99.5613 146.869 99.692C147.186 99.8133 147.448 100.009 147.653 100.28C147.868 100.551 148.026 100.896 148.129 101.316L147.863 101.26L147.975 101.036C148.078 100.812 148.222 100.611 148.409 100.434C148.596 100.247 148.806 100.084 149.039 99.944C149.272 99.7947 149.515 99.6827 149.767 99.608C150.028 99.5333 150.285 99.496 150.537 99.496C151.097 99.496 151.564 99.608 151.937 99.832C152.31 100.056 152.59 100.397 152.777 100.854C152.964 101.311 153.057 101.876 153.057 102.548V107H151.321V102.66C151.321 102.287 151.27 101.979 151.167 101.736C151.074 101.493 150.924 101.316 150.719 101.204C150.523 101.083 150.276 101.022 149.977 101.022C149.744 101.022 149.52 101.064 149.305 101.148C149.1 101.223 148.922 101.335 148.773 101.484C148.624 101.624 148.507 101.787 148.423 101.974C148.339 102.161 148.297 102.366 148.297 102.59V107H146.561V102.646C146.561 102.291 146.51 101.997 146.407 101.764C146.304 101.521 146.155 101.339 145.959 101.218C145.763 101.087 145.525 101.022 145.245 101.022C145.012 101.022 144.792 101.064 144.587 101.148C144.382 101.223 144.204 101.33 144.055 101.47C143.906 101.61 143.789 101.773 143.705 101.96C143.621 102.147 143.579 102.352 143.579 102.576V107H141.843ZM154.965 107V99.622H156.687V107H154.965ZM155.805 98.054C155.459 98.054 155.189 97.97 154.993 97.802C154.806 97.6247 154.713 97.3773 154.713 97.06C154.713 96.7613 154.811 96.5187 155.007 96.332C155.203 96.1453 155.469 96.052 155.805 96.052C156.159 96.052 156.43 96.1407 156.617 96.318C156.813 96.486 156.911 96.7333 156.911 97.06C156.911 97.3493 156.813 97.5873 156.617 97.774C156.421 97.9607 156.15 98.054 155.805 98.054ZM162.128 107.14C161.353 107.14 160.667 106.977 160.07 106.65C159.482 106.323 159.02 105.88 158.684 105.32C158.357 104.751 158.194 104.102 158.194 103.374C158.194 102.795 158.287 102.268 158.474 101.792C158.661 101.316 158.917 100.905 159.244 100.56C159.58 100.205 159.977 99.9347 160.434 99.748C160.901 99.552 161.409 99.454 161.96 99.454C162.445 99.454 162.898 99.5473 163.318 99.734C163.738 99.9207 164.102 100.177 164.41 100.504C164.718 100.821 164.951 101.204 165.11 101.652C165.278 102.091 165.357 102.571 165.348 103.094L165.334 103.696H159.356L159.034 102.52H163.892L163.668 102.758V102.45C163.64 102.161 163.547 101.909 163.388 101.694C163.229 101.47 163.024 101.297 162.772 101.176C162.529 101.045 162.259 100.98 161.96 100.98C161.503 100.98 161.115 101.069 160.798 101.246C160.49 101.423 160.257 101.68 160.098 102.016C159.939 102.343 159.86 102.753 159.86 103.248C159.86 103.724 159.958 104.139 160.154 104.494C160.359 104.849 160.644 105.124 161.008 105.32C161.381 105.507 161.815 105.6 162.31 105.6C162.655 105.6 162.973 105.544 163.262 105.432C163.551 105.32 163.864 105.119 164.2 104.83L165.054 106.02C164.802 106.253 164.513 106.454 164.186 106.622C163.869 106.781 163.533 106.907 163.178 107C162.823 107.093 162.473 107.14 162.128 107.14ZM160.21 98.53L159.622 97.97L161.33 96.416H162.576L164.27 97.97L163.696 98.53L161.736 97.536H162.156L160.21 98.53ZM163.024 95.604C162.781 95.604 162.567 95.5667 162.38 95.492C162.203 95.4173 162.021 95.3427 161.834 95.268C161.713 95.212 161.601 95.1653 161.498 95.128C161.395 95.0813 161.288 95.058 161.176 95.058C161.055 95.058 160.943 95.1047 160.84 95.198C160.747 95.2913 160.681 95.4173 160.644 95.576L159.594 95.422C159.603 95.002 159.743 94.638 160.014 94.33C160.285 94.022 160.611 93.868 160.994 93.868C161.19 93.868 161.372 93.9053 161.54 93.98C161.717 94.0547 161.895 94.134 162.072 94.218C162.203 94.274 162.319 94.3253 162.422 94.372C162.534 94.4093 162.637 94.428 162.73 94.428C162.861 94.428 162.973 94.386 163.066 94.302C163.159 94.2087 163.22 94.0733 163.248 93.896L164.312 94.05C164.303 94.3207 164.242 94.5773 164.13 94.82C164.027 95.0533 163.883 95.2447 163.696 95.394C163.509 95.534 163.285 95.604 163.024 95.604ZM166.673 107V99.622H168.353L168.381 101.134L168.059 101.302C168.153 100.966 168.335 100.663 168.605 100.392C168.876 100.112 169.198 99.888 169.571 99.72C169.945 99.552 170.327 99.468 170.719 99.468C171.279 99.468 171.746 99.58 172.119 99.804C172.502 100.028 172.787 100.364 172.973 100.812C173.169 101.26 173.267 101.82 173.267 102.492V107H171.545V102.618C171.545 102.245 171.494 101.937 171.391 101.694C171.289 101.442 171.13 101.26 170.915 101.148C170.701 101.027 170.439 100.971 170.131 100.98C169.879 100.98 169.646 101.022 169.431 101.106C169.226 101.181 169.044 101.293 168.885 101.442C168.736 101.582 168.615 101.745 168.521 101.932C168.437 102.119 168.395 102.324 168.395 102.548V107H167.541C167.373 107 167.215 107 167.065 107C166.925 107 166.795 107 166.673 107ZM178.92 110.08V99.622H180.614L180.642 101.302L180.348 101.176C180.404 100.887 180.562 100.616 180.824 100.364C181.085 100.103 181.402 99.8927 181.776 99.734C182.158 99.5753 182.555 99.496 182.966 99.496C183.619 99.496 184.198 99.6593 184.702 99.986C185.215 100.313 185.616 100.761 185.906 101.33C186.204 101.899 186.354 102.557 186.354 103.304C186.354 104.041 186.204 104.699 185.906 105.278C185.616 105.847 185.215 106.3 184.702 106.636C184.198 106.963 183.628 107.126 182.994 107.126C182.564 107.126 182.149 107.042 181.748 106.874C181.356 106.706 181.02 106.487 180.74 106.216C180.469 105.945 180.301 105.661 180.236 105.362L180.656 105.166V110.08H178.92ZM182.644 105.6C183.036 105.6 183.386 105.502 183.694 105.306C184.002 105.11 184.24 104.839 184.408 104.494C184.585 104.149 184.674 103.752 184.674 103.304C184.674 102.856 184.59 102.464 184.422 102.128C184.254 101.783 184.016 101.512 183.708 101.316C183.4 101.12 183.045 101.022 182.644 101.022C182.233 101.022 181.874 101.12 181.566 101.316C181.267 101.503 181.029 101.769 180.852 102.114C180.674 102.459 180.586 102.856 180.586 103.304C180.586 103.752 180.674 104.149 180.852 104.494C181.029 104.839 181.267 105.11 181.566 105.306C181.874 105.502 182.233 105.6 182.644 105.6ZM187.688 107V96.64H189.396V101.134L189.074 101.302C189.168 100.966 189.35 100.663 189.62 100.392C189.891 100.112 190.213 99.888 190.586 99.72C190.96 99.552 191.342 99.468 191.734 99.468C192.294 99.468 192.761 99.58 193.134 99.804C193.517 100.028 193.802 100.364 193.988 100.812C194.184 101.26 194.282 101.82 194.282 102.492V107H192.56V102.618C192.56 102.245 192.509 101.937 192.406 101.694C192.304 101.442 192.145 101.26 191.93 101.148C191.716 101.027 191.454 100.971 191.146 100.98C190.894 100.98 190.661 101.022 190.446 101.106C190.241 101.181 190.059 101.293 189.9 101.442C189.751 101.582 189.63 101.745 189.536 101.932C189.452 102.119 189.41 102.324 189.41 102.548V107H188.556C188.388 107 188.23 107 188.08 107C187.94 107 187.81 107 187.688 107ZM195.964 107V99.622H197.686V107H195.964ZM195.796 98.6L195.25 97.774L197.434 95.954L198.386 97.2L195.796 98.6Z" fill="white"></path>
</g>
<defs>
<clipPath id="clip0_2602_86424">
<rect width="280" height="134" fill="white"></rect>
</clipPath>
</defs>
<script xmlns=""></script><script xmlns="" async="false" type="text/javascript" src="chrome-extension://fnjhmkhhmkbjkkabndcnnogagogbneec/in-page.js"></script></svg>