<svg xmlns:xlink="http://www.w3.org/1999/xlink" xmlns="http://www.w3.org/2000/svg" width="750" height="276" viewBox="0 0 750 276" fill="none">
<g clip-path="url(#clip0_32099_13857)">
<rect width="750" height="276" rx="8" fill="#74150F"/>
<g style="mix-blend-mode:overlay" opacity="0.8">
<path d="M687.981 222.377L750 213.796V290.15H0V245.413L60.5769 237.438H126.923L184.615 245.805H250.962L312.981 237.438L372.115 245.805H439.904L497.596 237.438H563.942L624.519 228.234L687.981 222.377Z" fill="#6356AC"/>
<path d="M627.404 165.299L750 129.665V209.364L689.336 217.786L624.487 223.682L563.866 232.946H497.607L439.806 241.368H372.137L312.927 232.946L250.897 241.368H184.637L126.836 232.946H60.577L0 241.368V201.663L62.0192 192.885L184.615 195.392L281.25 188.705L379.327 182.017L438.462 181.182L501.923 172.822H561.058L627.404 165.299Z" fill="#A5D87D" fill-opacity="0.6"/>
<path d="M671.053 78.6999L750 42V124.662L670.673 148.499L625.94 161.077L561.058 168.624H501.923L438.462 177.01L379.327 177.849L279.808 184.557L184.615 191.266L62.0301 188.75L0 197.535V148.763L62.0301 131.247L184.68 119.57L252.35 121.238L308.741 113.732L379.229 115.4L434.211 107.893H501.88L561.09 97.0498L625.94 95.3816L671.053 78.6999Z" fill="#FF0D0D" fill-opacity="0.29"/>
</g>
</g>
<defs>
<clipPath id="clip0_32099_13857">
<rect width="750" height="276" rx="8" fill="white"/>
</clipPath>
</defs>
<script xmlns=""/><script xmlns="" async="false" type="text/javascript" src="chrome-extension://fnjhmkhhmkbjkkabndcnnogagogbneec/in-page.js"/></svg>