<svg xmlns="http://www.w3.org/2000/svg" xmlns:xlink="http://www.w3.org/1999/xlink" viewBox="0 0 430 430" width="430" height="430" preserveAspectRatio="xMidYMid meet" style="width: 100%; height: 100%; transform: translate3d(0px, 0px, 0px); content-visibility: visible;"><defs><clipPath id="__lottie_element_2"><rect width="430" height="430" x="0" y="0"></rect></clipPath><clipPath id="__lottie_element_4"><path d="M0,0 L430,0 L430,430 L0,430z"></path></clipPath></defs><g clip-path="url(#__lottie_element_2)"><g clip-path="url(#__lottie_element_4)" transform="matrix(1,0,0,1,0,0)" opacity="1" style="display: block;"><g transform="matrix(1,0,0,1,-35,-35)" opacity="1" style="display: block;"><g opacity="1" transform="matrix(1,0,0,1,249.95799255371094,410.1189880371094)"><path stroke-linecap="round" stroke-linejoin="round" fill-opacity="0" class="secondary" stroke="rgb(223,59,48)" stroke-opacity="1" stroke-width="7" d=" M-31.368000030517578,0 C-31.368000030517578,0 31.368000030517578,0 31.368000030517578,0"></path></g></g><g transform="matrix(1,0,0,1,-35,-34.5)" opacity="1" style="display: block;"><g opacity="1" transform="matrix(1,0,0,1,406.1189880371094,339.65301513671875)"><path stroke-linecap="round" stroke-linejoin="round" fill-opacity="0" class="quaternary" stroke="rgb(6,162,93)" stroke-opacity="1" stroke-width="7" d=" M-275.2030029296875,-0.25 C-275.2030029296875,-0.25 -342.92498779296875,0 -342.92498779296875,0 M30.236000061035156,0 C30.236000061035156,0 -40.986000061035156,-0.25 -40.986000061035156,-0.25"></path></g><g opacity="1" transform="matrix(1,0,0,1,0,0)"><g opacity="1" transform="matrix(1,0,0,1,252.67999267578125,109.89600372314453)"><path stroke-linecap="round" stroke-linejoin="round" fill-opacity="0" class="tertiary" stroke="rgb(44,44,44)" stroke-opacity="1" stroke-width="7" d=" M1.5989999771118164,20.264999389648438 C1.5989999771118164,20.264999389648438 -20.409000396728516,-19.764999389648438 -20.409000396728516,-19.764999389648438 M-7.708000183105469,20.639999389648438 C-7.708000183105469,20.639999389648438 14.458000183105469,-19.389999389648438 14.458000183105469,-19.389999389648438"></path></g></g></g><g transform="matrix(1,0,0,1,-35,-35)" opacity="1" style="display: block;"><g opacity="1" transform="matrix(1,0,0,1,252.23699951171875,277.12200927734375)"><path class="tertiary" fill="rgb(44,44,44)" fill-opacity="1" d=" M-2.375,-66.47000122070312 C-2.375,-66.47000122070312 -75.5469970703125,66.47000122070312 -75.5469970703125,66.47000122070312 C-75.5469970703125,66.47000122070312 70.7969970703125,66.47000122070312 70.7969970703125,66.47000122070312 C70.7969970703125,66.47000122070312 -2.375,-66.47000122070312 -2.375,-66.47000122070312z"></path></g><g opacity="1" transform="matrix(1,0,0,1,252.23699951171875,229.2220001220703)"><path class="secondary" fill="rgb(223,59,48)" fill-opacity="1" d=" M70.7959976196289,114.37000274658203 C23.99910545349121,72.77484130859375 -1.5785595178604126,-19.689693450927734 -2.375,-18.381000518798828 C-3.5314507484436035,-16.481245040893555 -16.846080780029297,77.0848159790039 -75.5459976196289,114.37000274658203 C-75.5459976196289,114.37000274658203 -128.45199584960938,114.37000274658203 -128.45199584960938,114.37000274658203 C-128.45199584960938,114.37000274658203 -65.40899658203125,0 -65.40899658203125,0 C-65.40899658203125,0 -2.375,-114.37000274658203 -2.375,-114.37000274658203 C-2.375,-114.37000274658203 60.659000396728516,0 60.659000396728516,0 C60.659000396728516,0 123.7020034790039,114.37000274658203 123.7020034790039,114.37000274658203 C123.7020034790039,114.37000274658203 70.7959976196289,114.37000274658203 70.7959976196289,114.37000274658203z"></path></g><g opacity="0.5" transform="matrix(1,0,0,1,194.33299255371094,229.2220001220703)" style="mix-blend-mode: multiply;"><path class="secondary" fill="rgb(223,59,48)" fill-opacity="1" d=" M65.7979965209961,-95.73699951171875 C65.7979965209961,-95.73699951171875 55.52899932861328,-114.37000274658203 55.52899932861328,-114.37000274658203 C55.52899932861328,-114.37000274658203 -7.505000114440918,0 -7.505000114440918,0 C-7.505000114440918,0 -70.5479965209961,114.37000274658203 -70.5479965209961,114.37000274658203 C-70.5479965209961,114.37000274658203 -50.0099983215332,114.37000274658203 -50.0099983215332,114.37000274658203 C-50.0099983215332,114.37000274658203 13.034000396728516,0 13.034000396728516,0 C13.034000396728516,0 65.7979965209961,-95.73699951171875 65.7979965209961,-95.73699951171875z"></path></g><g opacity="1" transform="matrix(1,0,0,1,0,0)"><g opacity="1" transform="matrix(1,0,0,1,165.76600646972656,329.4230041503906)"><path class="primary" fill="rgb(255,198,195)" fill-opacity="1" d=" M-27.211742401123047,-12.768741607666016 C-27.211742401123047,-12.768741607666016 -41.98099899291992,14.168000221252441 -41.98099899291992,14.168000221252441 C-41.98099899291992,14.168000221252441 10.925000190734863,14.168000221252441 10.925000190734863,14.168000221252441 C21.30644989013672,6.946324348449707 32.24407958984375,-1.5792261362075806 40.037078857421875,-12.470226287841797 C40.037078857421875,-12.470226287841797 -27.211742401123047,-12.768741607666016 -27.211742401123047,-12.768741607666016z"></path></g><g opacity="0.5" transform="matrix(1,0,0,1,144.23899841308594,329.4230041503906)" style="mix-blend-mode: multiply;"><path class="primary" fill="rgb(255,198,195)" fill-opacity="1" d=" M-5.684741973876953,-12.768741607666016 C-5.684741973876953,-12.768741607666016 -20.45400047302246,14.168000221252441 -20.45400047302246,14.168000221252441 C-20.45400047302246,14.168000221252441 0.08500000089406967,14.168000221252441 0.08500000089406967,14.168000221252441 C0.08500000089406967,14.168000221252441 14.927886962890625,-12.768741607666016 14.927886962890625,-12.768741607666016 C14.927886962890625,-12.768741607666016 -5.684741973876953,-12.768741607666016 -5.684741973876953,-12.768741607666016z"></path></g></g><g opacity="1" transform="matrix(1,0,0,1,338.7080078125,329.4230041503906)"><path class="primary" fill="rgb(255,198,195)" fill-opacity="1" d=" M22.433773040771484,-12.918000221252441 C22.433773040771484,-12.918000221252441 37.23099899291992,14.168000221252441 37.23099899291992,14.168000221252441 C37.23099899291992,14.168000221252441 -15.675000190734863,14.168000221252441 -15.675000190734863,14.168000221252441 C-25.42300033569336,6.568999767303467 -31.648759841918945,-2.1016290187835693 -39.4417610168457,-12.992629051208496 C-39.4417610168457,-12.992629051208496 22.433773040771484,-12.918000221252441 22.433773040771484,-12.918000221252441z"></path></g><g opacity="1" transform="matrix(1,0,0,1,252.1790008544922,146.41400146484375)"><path class="primary" fill="rgb(255,198,195)" fill-opacity="1" d=" M32.472999572753906,31.562000274658203 C32.472999572753906,31.562000274658203 -37.222999572753906,31.562000274658203 -37.222999572753906,31.562000274658203 C-37.222999572753906,31.562000274658203 -2.434999942779541,-31.562000274658203 -2.434999942779541,-31.562000274658203"></path></g><g opacity="0.5" transform="matrix(1,0,0,1,239.91900634765625,146.41400146484375)" style="mix-blend-mode: multiply;"><path class="primary" fill="rgb(255,198,195)" fill-opacity="1" d=" M20.21299934387207,-12.954000473022461 C20.21299934387207,-12.954000473022461 9.824999809265137,-31.562000274658203 9.824999809265137,-31.562000274658203 C9.824999809265137,-31.562000274658203 -24.96299934387207,31.562000274658203 -24.96299934387207,31.562000274658203 C-24.96299934387207,31.562000274658203 -4.322000026702881,31.562000274658203 -4.322000026702881,31.562000274658203 C-4.322000026702881,31.562000274658203 20.21299934387207,-12.954000473022461 20.21299934387207,-12.954000473022461z"></path></g><g opacity="1" transform="matrix(1,0,0,1,252.73300170898438,203.79100036621094)"><path stroke-linecap="round" stroke-linejoin="round" fill-opacity="0" class="senary" stroke="rgb(255,255,255)" stroke-opacity="1" stroke-width="7" d=" M-12.586000442504883,0 C-12.586000442504883,0 6.960999965667725,0 6.960999965667725,0"></path></g><g opacity="1" transform="matrix(1,0,0,1,252.73300170898438,188.79100036621094)"><path fill="rgb(18,19,49)" fill-opacity="1" d=" M-12.586000442504883,0 C-12.586000442504883,0 6.960999965667725,0 6.960999965667725,0"></path><path stroke-linecap="round" stroke-linejoin="round" fill-opacity="0" class="senary" stroke="rgb(255,255,255)" stroke-opacity="1" stroke-width="7" d=" M-12.586000442504883,0 C-12.586000442504883,0 6.960999965667725,0 6.960999965667725,0"></path></g></g><g transform="matrix(1,0,0,1,-35,-42.25)" opacity="1" style="display: block;"><g opacity="1" transform="matrix(0.9990039467811584,0.044621311128139496,-0.044621311128139496,0.9990039467811584,414.555908203125,332.9416198730469)"><path stroke-linecap="round" stroke-linejoin="round" fill-opacity="0" class="quaternary" stroke="rgb(6,162,93)" stroke-opacity="1" stroke-width="7" d=" M-5.357999801635742,10.715999603271484 C-5.357999801635742,10.715999603271484 5.357999801635742,-10.715999603271484 5.357999801635742,-10.715999603271484"></path></g><g opacity="1" transform="matrix(0.9840565919876099,0.1778557151556015,-0.1778557151556015,0.9840565919876099,405.43719482421875,331.919677734375)"><path stroke-linecap="round" stroke-linejoin="round" fill-opacity="0" class="quaternary" stroke="rgb(6,162,93)" stroke-opacity="1" stroke-width="7" d=" M5.357999801635742,10.715999603271484 C5.357999801635742,10.715999603271484 -5.357999801635742,-10.715999603271484 -5.357999801635742,-10.715999603271484"></path></g></g><g transform="matrix(1,0,0,1,-353.5,-42.25)" opacity="1" style="display: block;"><g opacity="1" transform="matrix(0.9990039467811584,0.044621311128139496,-0.044621311128139496,0.9990039467811584,414.555908203125,332.9416198730469)"><path stroke-linecap="round" stroke-linejoin="round" fill-opacity="0" class="quaternary" stroke="rgb(6,162,93)" stroke-opacity="1" stroke-width="7" d=" M-5.357999801635742,10.715999603271484 C-5.357999801635742,10.715999603271484 5.357999801635742,-10.715999603271484 5.357999801635742,-10.715999603271484"></path></g><g opacity="1" transform="matrix(0.9840565919876099,0.1778557151556015,-0.1778557151556015,0.9840565919876099,405.43719482421875,331.919677734375)"><path stroke-linecap="round" stroke-linejoin="round" fill-opacity="0" class="quaternary" stroke="rgb(6,162,93)" stroke-opacity="1" stroke-width="7" d=" M5.357999801635742,10.715999603271484 C5.357999801635742,10.715999603271484 -5.357999801635742,-10.715999603271484 -5.357999801635742,-10.715999603271484"></path></g></g><g transform="matrix(1,0,0,1,-302.5,32)" opacity="1" style="display: block;"><g opacity="1" transform="matrix(0.9990039467811584,0.044621311128139496,-0.044621311128139496,0.9990039467811584,414.555908203125,332.9416198730469)"><path stroke-linecap="round" stroke-linejoin="round" fill-opacity="0" class="quaternary" stroke="rgb(6,162,93)" stroke-opacity="1" stroke-width="7" d=" M-5.357999801635742,10.715999603271484 C-5.357999801635742,10.715999603271484 5.357999801635742,-10.715999603271484 5.357999801635742,-10.715999603271484"></path></g><g opacity="1" transform="matrix(0.9840565919876099,0.1778557151556015,-0.1778557151556015,0.9840565919876099,405.43719482421875,331.919677734375)"><path stroke-linecap="round" stroke-linejoin="round" fill-opacity="0" class="quaternary" stroke="rgb(6,162,93)" stroke-opacity="1" stroke-width="7" d=" M5.357999801635742,10.715999603271484 C5.357999801635742,10.715999603271484 -5.357999801635742,-10.715999603271484 -5.357999801635742,-10.715999603271484"></path></g></g><g transform="matrix(1,0,0,1,-85,32)" opacity="1" style="display: block;"><g opacity="1" transform="matrix(0.9990039467811584,0.044621311128139496,-0.044621311128139496,0.9990039467811584,414.555908203125,332.9416198730469)"><path stroke-linecap="round" stroke-linejoin="round" fill-opacity="0" class="quaternary" stroke="rgb(6,162,93)" stroke-opacity="1" stroke-width="7" d=" M-5.357999801635742,10.715999603271484 C-5.357999801635742,10.715999603271484 5.357999801635742,-10.715999603271484 5.357999801635742,-10.715999603271484"></path></g><g opacity="1" transform="matrix(0.9840565919876099,0.1778557151556015,-0.1778557151556015,0.9840565919876099,405.43719482421875,331.919677734375)"><path stroke-linecap="round" stroke-linejoin="round" fill-opacity="0" class="quaternary" stroke="rgb(6,162,93)" stroke-opacity="1" stroke-width="7" d=" M5.357999801635742,10.715999603271484 C5.357999801635742,10.715999603271484 -5.357999801635742,-10.715999603271484 -5.357999801635742,-10.715999603271484"></path></g></g><g transform="matrix(0.7611874341964722,0,0,0.8070712089538574,-255.20860290527344,46.299957275390625)" opacity="1" style="display: block;"><path class="quinary" fill="rgb(251,180,9)" fill-opacity="1" d=" M659.4552612304688,312.63189697265625 C659.4552612304688,312.63189697265625 639.4890747070312,338.51092529296875 639.4890747070312,338.51092529296875 C639.4890747070312,338.51092529296875 617.7362060546875,299.08447265625 617.7362060546875,299.08447265625 C617.7362060546875,299.08447265625 595.3922729492188,337.2462463378906 595.3922729492188,337.2462463378906 C595.3922729492188,337.2462463378906 570.62548828125,318.9114685058594 570.62548828125,318.9114685058594 C570.62548828125,318.9114685058594 570.1945190429688,354.1265869140625 570.7030639648438,367.2784729003906 C571.8215942382812,389.0360107421875 595.56298828125,406.9219970703125 617.7379760742188,406.9219970703125 C639.9130249023438,406.9219970703125 665.5953369140625,389.8134765625 666.217529296875,368.046875 C666.2980346679688,355.40875244140625 659.4552612304688,312.63189697265625 659.4552612304688,312.63189697265625z"></path><g opacity="1" transform="matrix(1,0,0,1,0,0)"></g></g></g></g></svg>