<svg xmlns:xlink="http://www.w3.org/1999/xlink" xmlns="http://www.w3.org/2000/svg" width="30" height="24" viewBox="0 0 30 24" fill="none">
<path d="M0 20H4V24C1.79086 24 0 22.2091 0 20Z" fill="#009BA1"/>
<path d="M0 4C0 1.79086 1.79086 0 4 0H26C28.2091 0 30 1.79086 30 4V16C30 18.2091 28.2091 20 26 20H0V4Z" fill="white"/>
<path d="M0 4C0 1.79086 1.79086 0 4 0H26C28.2091 0 30 1.79086 30 4V16C30 18.2091 28.2091 20 26 20H0V4Z" fill="#CCCCCC" fill-opacity="0.3"/>
<path d="M0 4C0 1.79086 1.79086 0 4 0H26C28.2091 0 30 1.79086 30 4V16C30 18.2091 28.2091 20 26 20H0V4Z" fill="#009BA1" fill-opacity="0.65"/>
<path d="M9.87305 12.1426L12.041 5.46875H13.6699L10.5996 14H9.16406L6.10547 5.46875H7.72852L9.87305 12.1426ZM16.2012 14H14.7246V5.46875H16.2012V14ZM19.5059 10.8301V14H18.0234V5.46875H21.2871C22.2402 5.46875 22.9961 5.7168 23.5547 6.21289C24.1172 6.70898 24.3984 7.36523 24.3984 8.18164C24.3984 9.01758 24.123 9.66797 23.5723 10.1328C23.0254 10.5977 22.2578 10.8301 21.2695 10.8301H19.5059ZM19.5059 9.64062H21.2871C21.8145 9.64062 22.2168 9.51758 22.4941 9.27148C22.7715 9.02148 22.9102 8.66211 22.9102 8.19336C22.9102 7.73242 22.7695 7.36523 22.4883 7.0918C22.207 6.81445 21.8203 6.67188 21.3281 6.66406H19.5059V9.64062Z" fill="white"/>
<script xmlns=""/></svg>